<?xml version="1.0" standalone="no"?>
<!DOCTYPE svg PUBLIC "-//W3C//DTD SVG 20010904//EN"
 "http://www.w3.org/TR/2001/REC-SVG-20010904/DTD/svg10.dtd">
<svg version="1.0" xmlns="http://www.w3.org/2000/svg"
 width="800.000000pt" height="800.000000pt" viewBox="0 0 800.000000 800.000000"
 preserveAspectRatio="xMidYMid meet">

<g transform="translate(0.000000,800.000000) scale(0.100000,-0.100000)"
fill="#000000" stroke="none">
<path d="M3781 6549 c-52 -5 -135 -15 -185 -24 -102 -16 -348 -76 -342 -83 4
-3 151 18 261 39 138 25 526 36 726 19 139 -11 369 -62 454 -99 11 -5 47 -19
80 -32 71 -27 233 -112 326 -172 142 -91 229 -170 358 -322 41 -48 111 -173
142 -254 16 -42 34 -85 39 -96 5 -11 23 -67 41 -125 17 -58 35 -114 39 -125 5
-11 25 -78 45 -150 20 -71 43 -152 51 -180 8 -27 17 -95 20 -150 5 -93 4 -107
-25 -190 -16 -49 -30 -85 -30 -79 -1 5 -7 18 -14 28 -13 18 -15 18 -43 0 -34
-21 -131 -121 -139 -143 -5 -13 -8 -13 -14 -2 -5 7 -14 10 -20 7 -6 -4 -11 -4
-11 1 0 4 14 14 31 22 16 7 28 16 25 19 -4 3 1 16 9 28 41 63 56 156 30 190
-14 19 -15 18 -37 -8 -15 -16 -49 -34 -93 -48 -38 -12 -74 -26 -80 -31 -5 -5
-14 -9 -20 -9 -5 0 -1 7 9 15 26 19 20 23 -49 36 -113 21 -232 -7 -345 -81
-41 -28 -110 -66 -152 -86 -43 -20 -78 -41 -78 -47 0 -5 -11 -33 -24 -61 -13
-28 -27 -63 -30 -78 -5 -24 -3 -28 15 -28 33 0 18 -9 -22 -14 -21 -2 -34 -9
-33 -17 0 -8 4 -41 7 -74 4 -33 3 -66 -1 -73 -5 -7 -8 9 -9 38 0 28 -6 64 -13
81 -9 22 -10 33 -2 38 16 9 -8 91 -27 91 -8 0 -26 -10 -40 -22 -19 -17 -17
-13 5 12 17 19 40 57 49 84 12 29 27 52 41 58 13 6 21 15 18 19 -9 15 33 10
45 -5 11 -13 18 -12 49 7 20 12 39 24 42 27 3 4 37 24 75 45 39 21 72 42 75
45 3 4 19 15 35 24 17 9 21 14 10 12 -125 -32 -292 -65 -333 -66 -18 0 -49 -8
-70 -19 -20 -10 -52 -22 -69 -26 -18 -3 -36 -12 -40 -18 -10 -17 -11 -47 -1
-41 4 3 8 0 8 -5 0 -6 15 -12 33 -12 30 -2 31 -2 4 -6 -19 -3 -27 -10 -26 -21
3 -25 -18 -95 -36 -117 -15 -18 -15 -18 -1 10 8 17 17 49 20 70 l6 40 -13 -45
c-8 -25 -19 -55 -26 -68 -9 -18 -9 -23 1 -26 35 -11 40 -16 16 -12 -19 2 -28
-1 -28 -11 0 -8 -4 -12 -9 -8 -14 8 -20 -7 -11 -29 5 -15 -2 -27 -24 -46 -35
-31 -116 -74 -116 -63 0 5 -5 1 -10 -8 -5 -9 -20 -19 -33 -23 -45 -11 -159
-69 -164 -83 -9 -24 14 -37 66 -36 44 1 50 -2 55 -23 4 -13 15 -28 26 -34 31
-16 24 4 -14 44 l-33 36 41 -6 c23 -4 45 -10 49 -14 4 -3 -7 -5 -24 -2 -27 4
-30 2 -21 -9 7 -8 21 -26 33 -41 21 -29 45 -38 36 -14 -3 8 1 17 9 20 8 3 14
0 14 -6 0 -7 19 -9 54 -6 40 3 84 19 163 58 59 30 111 56 116 58 4 2 7 0 7 -5
0 -5 -24 -21 -52 -35 -52 -26 -52 -27 -21 -27 35 -1 87 43 78 67 -2 6 0 12 5
12 6 0 10 8 10 18 0 14 8 17 33 17 18 -1 53 3 77 9 l44 11 -2 45 c-3 50 8 75
29 68 10 -3 18 10 25 41 l12 46 1 -45 c1 -43 15 -117 23 -125 2 -3 28 2 58 10
73 20 89 19 64 -1 -10 -8 -14 -13 -8 -10 7 3 17 -8 25 -25 26 -65 169 -121
182 -71 4 16 5 16 6 -1 0 -10 6 -15 11 -12 6 3 10 -1 10 -10 0 -12 5 -15 16
-11 9 3 18 6 20 6 2 0 5 10 5 23 1 17 2 18 6 4 4 -15 7 -16 21 -5 12 10 14 10
8 1 -4 -8 -1 -13 9 -13 9 0 13 -5 10 -10 -4 -6 -3 -9 2 -8 4 1 23 -1 41 -5 29
-6 32 -10 32 -44 0 -45 -21 -88 -56 -115 -14 -12 -23 -27 -20 -35 3 -8 2 -12
-3 -8 -10 6 -27 -39 -36 -100 -10 -58 -16 -76 -24 -71 -4 3 -12 -8 -18 -25
l-11 -29 123 0 c113 0 211 -14 248 -36 9 -6 9 -4 1 7 -6 8 -14 37 -18 64 -26
208 -40 259 -87 308 -12 12 -35 42 -52 66 -35 52 -40 117 -12 171 10 20 15 48
13 71 -2 25 0 35 6 29 6 -6 28 -11 51 -12 l40 -1 -36 -4 c-34 -4 -37 -7 -43
-45 -7 -41 19 -123 64 -203 10 -18 16 -36 13 -39 -3 -3 2 -12 11 -21 9 -9 16
-23 16 -31 0 -25 54 -199 64 -206 15 -10 13 -128 -3 -137 -10 -7 -8 -12 10
-26 l24 -17 -32 7 c-22 4 -33 3 -33 -5 0 -6 5 -8 10 -5 6 3 10 -1 10 -10 0
-23 -24 -13 -28 12 -4 30 -79 43 -242 43 -136 0 -138 0 -154 -25 -19 -29 -48
-32 -67 -7 -13 15 -29 16 -164 12 -110 -4 -139 -7 -110 -13 22 -4 54 -14 70
-22 17 -9 21 -13 10 -9 -94 27 -254 37 -240 14 3 -4 -3 -7 -12 -6 -10 0 -19
-9 -23 -24 l-6 -25 -7 25 c-7 22 -8 23 -18 8 -12 -21 -25 -23 -32 -5 -2 6 7
21 21 31 14 11 22 13 17 6 -5 -9 -4 -11 3 -6 16 10 15 22 -5 53 -10 15 -16 37
-15 49 3 18 -4 24 -33 34 l-35 12 22 18 22 18 -49 31 c-27 17 -53 31 -59 31
-5 0 -7 3 -3 6 19 19 158 -98 149 -126 -3 -7 0 -10 5 -7 12 7 23 -38 23 -90 0
-32 2 -34 16 -22 9 7 20 22 24 34 7 17 9 17 9 3 1 -20 15 -21 76 -9 32 7 34 9
13 10 -20 1 -28 6 -28 19 0 12 3 13 8 5 6 -9 47 -12 160 -9 84 2 155 5 157 7
9 10 -26 69 -42 69 -32 0 -100 31 -100 46 0 8 6 14 13 14 7 0 15 4 18 8 2 4
-26 7 -62 5 l-67 -2 70 13 c39 7 62 14 52 15 -14 1 -17 6 -12 22 6 19 4 20
-22 15 -15 -3 -50 -8 -78 -10 l-50 -6 45 15 45 14 -65 -4 c-36 -3 -55 -1 -42
3 27 8 30 27 5 27 -12 0 -20 11 -24 35 -3 19 -10 44 -14 55 -8 20 -7 20 7 0
15 -19 16 -19 71 0 46 16 53 21 40 30 -14 10 -12 14 13 32 16 11 35 18 42 16
6 -3 12 0 12 6 0 15 -21 13 -44 -4 -22 -17 -36 -11 -36 16 0 13 -7 19 -21 19
-11 0 -29 5 -39 10 -10 6 -30 11 -44 12 -18 2 -22 6 -15 14 5 7 6 15 2 17 -5
3 -30 -15 -57 -39 -27 -24 -53 -44 -59 -44 -5 0 -7 -14 -5 -31 7 -46 -28 -69
-104 -69 -39 0 -75 -7 -106 -22 l-47 -21 43 -15 c57 -19 49 -25 -9 -8 -27 8
-52 11 -60 6 -17 -11 -14 -14 41 -29 25 -7 54 -20 65 -28 20 -15 20 -15 0 -8
-101 39 -130 46 -153 36 -14 -7 -21 -7 -17 -1 3 6 -4 10 -17 10 -13 0 -37 9
-54 19 l-31 19 -29 -26 -29 -27 -21 24 c-14 16 -27 22 -38 18 -16 -6 -16 -10
6 -36 15 -20 29 -28 41 -24 16 4 17 2 6 -15 -7 -12 -16 -19 -20 -17 -9 6 -34
-25 -49 -63 -17 -44 -31 -50 -23 -10 3 18 10 35 15 36 14 6 9 52 -6 52 -9 0
-13 -8 -10 -22 4 -19 3 -20 -4 -4 -7 16 -11 14 -38 -19 -16 -21 -28 -42 -26
-47 1 -5 -2 -7 -7 -3 -6 3 -15 -3 -20 -14 -6 -11 -18 -27 -27 -35 -13 -14 -14
-22 -4 -52 7 -19 10 -38 6 -41 -3 -3 -8 8 -12 23 -11 45 -14 47 -40 23 -12
-12 -29 -19 -37 -16 -10 4 -13 -2 -11 -21 2 -15 1 -19 -2 -9 -3 9 -9 15 -14
12 -4 -3 -13 9 -19 27 -14 40 -14 46 2 25 10 -15 12 -11 14 25 l2 43 -24 -40
c-27 -43 -30 -55 -16 -55 14 0 47 -58 66 -114 18 -51 20 -88 28 -366 2 -96 2
-127 -2 -68 -3 58 -8 108 -11 111 -10 9 -140 -12 -168 -27 -24 -12 -30 -24
-36 -62 -3 -25 -4 -58 -1 -72 5 -26 5 -26 -6 -4 -7 12 -17 22 -24 22 -7 0 -9
13 -7 36 4 34 3 35 -18 24 -12 -6 -24 -9 -27 -6 -3 3 5 10 19 15 15 6 28 22
35 45 10 33 10 36 -10 36 -11 0 -32 -10 -46 -22 -14 -13 -20 -16 -14 -8 10 13
4 15 -40 11 -29 -1 -57 -7 -63 -12 -6 -5 -23 -4 -40 1 l-29 10 33 -3 33 -4
-37 38 c-20 21 -31 39 -26 43 6 3 13 -3 17 -14 7 -22 65 -58 65 -40 0 6 5 8
12 4 7 -5 8 -3 2 7 -4 8 -9 19 -10 25 -1 6 -5 27 -9 45 -5 27 -4 31 5 19 9
-12 11 -8 7 18 -4 34 13 43 43 21 12 -8 10 -9 -7 -4 -20 5 -23 3 -23 -19 0
-30 17 -33 61 -10 20 10 42 13 62 9 24 -5 28 -4 17 4 -13 9 -13 11 1 11 11 0
14 7 11 28 l-4 28 -56 -9 c-32 -4 -71 -11 -89 -13 -19 -3 -33 -12 -36 -22 -4
-15 -5 -15 -6 1 -1 15 -6 17 -23 11 -13 -5 -39 -7 -58 -6 -27 1 -32 0 -20 -9
12 -9 10 -10 -9 -5 -19 4 -35 -6 -82 -54 -32 -33 -52 -61 -46 -63 15 -5 -84
-27 -122 -27 -25 0 -28 3 -24 25 8 37 -37 45 -82 14 -42 -29 -47 -59 -10 -59
14 0 25 -4 25 -8 0 -5 15 -16 33 -25 22 -12 25 -15 8 -11 -49 13 -106 49 -109
70 -2 12 12 37 35 63 30 34 47 44 80 48 24 3 41 9 38 13 -2 4 17 5 43 3 61 -5
76 5 62 41 -8 22 -14 26 -33 20 -38 -11 -98 -40 -93 -45 2 -2 -58 -2 -133 1
-127 5 -141 7 -177 31 -59 40 -90 72 -199 208 -22 27 -62 62 -89 77 -171 95
-295 264 -406 554 -130 343 -156 761 -65 1042 29 88 100 249 149 337 25 46 46
87 46 92 0 5 3 9 8 9 4 0 20 21 35 48 61 103 256 323 347 391 19 14 41 32 48
38 67 63 281 165 417 197 563 134 1224 122 1580 -29 129 -55 304 -149 325
-175 3 -3 23 -19 45 -35 49 -37 169 -157 215 -216 19 -24 37 -46 40 -49 12
-10 70 -110 70 -120 0 -6 4 -10 9 -10 5 0 16 -17 24 -37 8 -21 31 -72 50 -113
77 -168 86 -196 137 -450 16 -80 37 -161 46 -180 10 -20 19 -66 22 -110 5 -79
-13 -216 -29 -226 -5 -3 -9 -13 -9 -22 0 -26 16 -2 39 56 12 29 30 63 42 75
31 32 69 111 78 163 12 66 -19 205 -70 306 -4 9 -19 59 -33 111 -14 53 -42
142 -62 199 -20 57 -38 112 -41 123 -3 11 -9 25 -13 30 -4 6 -23 46 -43 90
-37 86 -122 225 -137 225 -5 0 -11 8 -14 18 -7 21 -130 150 -165 172 -13 8
-34 23 -46 33 -13 9 -26 17 -29 17 -3 0 -29 15 -58 33 -29 18 -67 39 -85 46
-17 7 -39 21 -49 32 -9 10 -21 19 -25 19 -5 0 -45 18 -91 41 -278 136 -535
180 -948 159 -251 -12 -377 -24 -480 -46 -136 -29 -325 -76 -335 -84 -5 -4
-50 -22 -100 -40 -49 -18 -97 -39 -105 -46 -8 -6 -41 -25 -73 -42 -31 -17 -69
-40 -85 -52 -15 -11 -63 -47 -107 -80 -79 -58 -196 -172 -247 -240 -14 -19
-35 -45 -47 -57 -12 -12 -21 -25 -21 -29 0 -4 -8 -17 -19 -28 -10 -12 -41 -59
-67 -106 -27 -47 -52 -86 -56 -88 -5 -2 -8 -12 -8 -23 0 -10 -5 -19 -12 -19
-6 0 -9 -3 -5 -6 3 -3 -5 -27 -17 -52 -13 -26 -36 -85 -51 -132 -16 -47 -32
-94 -36 -105 -4 -11 -11 -38 -15 -60 -4 -22 -9 -47 -11 -55 -28 -107 -43 -446
-28 -607 9 -101 45 -294 59 -323 7 -14 21 -54 31 -90 20 -73 189 -410 216
-430 4 -3 42 -75 86 -160 97 -191 169 -401 198 -580 4 -25 9 -54 11 -65 2 -11
11 -87 20 -169 19 -186 9 -347 -38 -576 -6 -30 -12 -65 -14 -77 -1 -13 -5 -32
-9 -42 -5 -15 7 -28 61 -63 36 -23 70 -42 75 -41 5 2 9 -1 9 -6 0 -15 306
-181 334 -181 4 0 2 9 -4 20 -6 11 -7 20 -2 20 5 0 22 19 37 42 15 23 48 64
73 90 25 27 42 51 39 54 -3 3 -24 8 -48 11 l-42 6 54 17 c44 14 57 14 69 4 12
-10 25 -9 70 5 40 14 59 16 68 8 12 -9 12 -12 0 -17 -27 -10 -62 -40 -55 -46
3 -4 -20 -23 -51 -43 -43 -28 -63 -50 -82 -87 -15 -30 -37 -56 -54 -65 -42
-21 -48 -44 -10 -35 18 4 24 3 16 -2 -9 -6 -1 -13 30 -25 55 -20 76 -18 120
13 30 20 35 28 28 45 -5 12 -4 28 1 36 6 10 9 4 9 -20 0 -30 2 -33 23 -27 72
22 128 35 170 41 26 4 52 15 58 24 10 15 10 15 5 -1 -4 -13 6 -19 46 -28 29
-6 57 -15 63 -20 13 -11 60 54 50 70 -5 7 -19 10 -37 6 -24 -5 -35 0 -59 23
-16 16 -29 27 -29 24 0 -3 -8 1 -18 10 -19 17 -32 13 -51 -18 -11 -18 -11 -18
-5 5 11 41 10 44 -11 45 -14 0 -32 -22 -65 -77 -47 -80 -66 -98 -53 -50 4 15
7 38 6 52 0 14 2 19 4 13 7 -20 19 -15 31 11 8 18 7 27 -6 42 -16 17 -16 17 1
5 15 -12 20 -11 38 5 23 21 18 70 -9 91 -9 7 -11 13 -5 13 7 0 15 -4 18 -10
11 -17 33 -11 29 8 -3 9 8 55 25 102 31 87 29 99 -11 100 -23 0 -66 -19 -103
-46 -16 -12 -46 -25 -66 -29 -31 -6 -68 -39 -56 -51 3 -3 34 11 69 31 71 39
103 47 48 13 -19 -13 -41 -28 -47 -34 -7 -7 -28 -22 -48 -34 -19 -12 -35 -27
-35 -32 0 -6 -3 -8 -7 -5 -3 4 -15 -1 -26 -10 -22 -19 -19 -10 13 37 9 14 20
36 23 49 6 23 5 23 -51 19 l-57 -5 35 14 c40 17 100 71 100 91 0 7 4 11 9 7 5
-3 12 -2 15 3 8 13 -33 12 -76 -4 -64 -22 -68 -16 -8 12 57 26 71 39 68 64 -1
16 12 52 44 113 25 48 16 48 -12 0 -12 -21 -36 -49 -53 -62 -30 -23 -30 -22 5
15 31 33 68 98 68 119 0 3 -9 1 -19 -5 -11 -5 -32 -15 -48 -20 -30 -11 -31
-12 27 33 8 7 21 20 29 30 13 16 13 20 0 28 -10 6 -10 9 -1 9 6 0 12 9 12 20
0 23 -6 24 -40 5 -26 -15 -53 -21 -35 -7 14 10 41 70 49 110 8 32 -7 44 -30
24 -5 -5 -27 -19 -49 -32 l-40 -24 20 24 c33 38 139 101 121 71 -5 -7 14 -21
29 -21 9 0 110 105 107 112 -1 5 2 6 8 3 7 -4 -3 -23 -25 -48 -43 -50 -89
-142 -81 -162 3 -8 1 -15 -3 -15 -5 0 -11 -18 -13 -39 -2 -22 0 -38 3 -35 4 2
9 -10 13 -27 3 -19 10 -28 17 -23 8 5 8 9 -1 14 -7 4 9 10 37 14 130 17 129
17 105 6 -44 -19 -140 -99 -161 -136 -12 -20 -16 -34 -9 -31 24 10 83 26 141
37 l57 11 1 62 c1 34 4 50 6 34 2 -15 8 -27 12 -27 4 0 6 -14 3 -30 -4 -27 -1
-30 21 -30 14 0 29 -6 33 -12 6 -9 10 -5 15 12 7 22 7 21 6 -7 -1 -29 -3 -31
-17 -18 -9 8 -26 15 -37 15 -18 0 -21 -6 -19 -40 1 -49 -9 -52 -18 -5 -4 19
-8 35 -10 35 -14 0 -93 -33 -106 -44 -8 -7 -22 -14 -30 -14 -41 -3 -85 -13
-94 -22 -6 -6 -5 -18 4 -35 10 -19 21 -25 48 -25 l35 0 -47 -36 c-25 -21 -44
-39 -42 -41 3 -3 32 5 66 16 65 23 150 25 150 4 0 -6 -9 -39 -20 -74 -10 -34
-17 -66 -15 -70 3 -4 -1 -9 -9 -12 -9 -4 -14 -23 -14 -60 0 -53 0 -54 28 -55
30 -1 56 20 46 36 -7 12 31 62 47 62 6 0 2 -6 -8 -14 -23 -17 -13 -46 15 -46
14 0 19 4 14 13 -6 9 -5 9 7 0 11 -9 14 -7 15 13 2 29 36 84 41 67 3 -7 -4
-24 -14 -40 -15 -23 -15 -26 -1 -15 9 7 25 35 37 62 12 28 23 50 26 50 8 0
-15 -62 -34 -88 -16 -23 -18 -32 -8 -42 10 -12 9 -12 -5 -1 -14 10 -18 9 -28
-9 -10 -18 -8 -24 7 -36 27 -20 46 -18 40 6 -9 34 1 22 23 -26 23 -53 25 -80
8 -90 -7 -4 -8 -3 -4 4 4 6 -6 18 -23 26 -28 15 -29 15 -24 -5 3 -11 11 -23
18 -26 19 -7 4 -51 -34 -103 -17 -24 -31 -46 -31 -50 0 -6 41 -37 160 -120
l65 -45 175 1 c190 1 356 19 534 59 60 14 110 26 112 28 2 1 15 70 29 152 21
117 25 167 20 227 -6 70 -4 81 19 123 45 79 57 94 105 126 71 49 115 60 216
58 l90 -2 11 54 c9 46 8 55 -5 61 -14 6 -14 7 0 7 11 1 22 19 33 54 29 92 84
183 158 263 21 23 30 44 34 85 11 97 61 219 90 219 11 0 15 6 11 19 -3 13 1
21 15 24 11 3 18 12 15 19 -2 7 11 29 30 50 l35 36 -28 38 c-16 21 -23 35 -16
30 8 -5 12 1 12 23 0 16 -5 33 -12 37 -8 5 -9 0 -6 -14 5 -18 2 -22 -19 -22
-14 0 -22 4 -18 10 4 6 11 8 16 5 14 -9 11 21 -6 62 -27 63 -82 121 -128 135
-23 7 -44 15 -47 19 -3 3 -45 12 -94 19 -117 16 -160 30 -76 24 95 -8 201 -32
258 -59 40 -19 56 -35 82 -82 28 -50 34 -55 41 -38 7 18 8 18 9 -5 1 -30 39
-86 40 -57 0 9 7 17 15 17 8 0 15 4 15 10 0 5 3 9 8 9 20 -3 31 3 37 22 5 15
10 17 20 9 10 -8 14 3 17 60 2 38 9 75 16 82 11 11 11 8 3 -15 -6 -16 -11 -53
-11 -83 0 -30 -7 -68 -15 -83 -8 -16 -12 -31 -9 -34 3 -3 -6 -4 -20 -3 -14 2
-26 -1 -26 -5 0 -5 -15 -9 -34 -9 -30 0 -33 -3 -29 -21 8 -29 71 -121 76 -111
3 4 8 25 12 47 12 69 16 79 26 64 5 -8 8 -21 8 -29 0 -10 -3 -9 -10 5 -7 15
-8 8 -4 -25 4 -34 3 -41 -6 -30 -8 12 -10 9 -6 -12 2 -15 0 -25 -4 -22 -13 8
-11 -10 3 -24 10 -10 7 -16 -10 -28 -16 -11 -22 -25 -22 -53 0 -25 -5 -41 -15
-45 -8 -3 -12 -12 -9 -21 3 -8 -3 -33 -15 -55 -12 -22 -21 -42 -21 -44 0 -2
18 3 40 10 22 8 70 19 108 25 65 11 69 13 105 61 44 60 49 110 16 152 -17 22
-27 26 -48 21 -25 -6 -25 -5 4 13 17 11 54 45 84 75 43 44 56 66 62 99 l6 43
2 -50 c1 -75 -13 -96 -105 -151 -18 -11 -18 -12 -1 -32 25 -27 38 -88 26 -120
-5 -14 -21 -38 -34 -54 -14 -16 -25 -33 -25 -38 0 -4 24 -11 53 -15 118 -15
225 -53 304 -107 l42 -28 45 83 c260 477 360 1074 270 1617 -154 929 -799
1697 -1687 2005 -335 117 -710 165 -1056 134z m1996 -2086 c-3 -10 -5 -2 -5
17 0 19 2 27 5 18 2 -10 2 -26 0 -35z m-1110 -19 c-3 -3 -12 -4 -19 -1 -8 3
-5 6 6 6 11 1 17 -2 13 -5z m976 -24 c3 -11 1 -18 -4 -14 -5 3 -9 12 -9 20 0
20 7 17 13 -6z m-73 -34 c0 -2 -7 -7 -16 -10 -8 -3 -12 -2 -9 4 6 10 25 14 25
6z m-59 -59 c-10 -9 -11 -8 -5 6 3 10 9 15 12 12 3 -3 0 -11 -7 -18z m-504
-69 c-3 -8 -6 -5 -6 6 -1 11 2 17 5 13 3 -3 4 -12 1 -19z m894 -5 c13 -16 12
-17 -3 -4 -10 7 -18 15 -18 17 0 8 8 3 21 -13z m-166 -13 c10 -11 16 -20 13
-20 -3 0 -13 9 -23 20 -10 11 -16 20 -13 20 3 0 13 -9 23 -20z m-262 -37 c-7
-2 -21 -2 -30 0 -10 3 -4 5 12 5 17 0 24 -2 18 -5z m287 -5 c0 -10 -9 -9 -35
2 -17 8 -16 8 8 7 15 -1 27 -5 27 -9z m-357 -5 c-7 -2 -21 -2 -30 0 -10 3 -4
5 12 5 17 0 24 -2 18 -5z m-70 -10 c-7 -2 -19 -2 -25 0 -7 3 -2 5 12 5 14 0
19 -2 13 -5z m-326 -35 c-3 -7 -5 -2 -5 12 0 14 2 19 5 13 2 -7 2 -19 0 -25z
m258 22 c-11 -5 -27 -9 -35 -9 -13 -1 -13 0 0 9 8 5 24 9 35 9 l20 0 -20 -9z
m-68 -16 c-3 -3 -12 -4 -19 -1 -8 3 -5 6 6 6 11 1 17 -2 13 -5z m-47 -21 c0
-10 -4 -14 -8 -8 -4 6 -11 13 -16 18 -5 4 -2 7 7 7 10 0 17 -8 17 -17z m314
-117 c-16 -13 -31 -22 -34 -20 -2 3 9 16 25 29 39 30 46 23 9 -9z m596 4 c0
-5 -2 -10 -4 -10 -3 0 -8 5 -11 10 -3 6 -1 10 4 10 6 0 11 -4 11 -10z m-1693
-72 c-3 -7 -5 -2 -5 12 0 14 2 19 5 13 2 -7 2 -19 0 -25z m423 18 c0 -2 -8
-10 -17 -17 -16 -13 -17 -12 -4 4 13 16 21 21 21 13z m1345 -66 c10 -11 16
-20 13 -20 -3 0 -13 9 -23 20 -10 11 -16 20 -13 20 3 0 13 -9 23 -20z m40 -56
c9 -15 12 -23 6 -20 -11 7 -35 46 -28 46 3 0 12 -12 22 -26z m-1995 -40 c0 -8
-19 -13 -24 -6 -3 5 1 9 9 9 8 0 15 -2 15 -3z m2050 -53 c0 -18 -4 -14 -24 29
l-17 35 20 -25 c11 -14 21 -31 21 -39z m-1622 19 c17 -11 32 -22 32 -26 0 -4
-60 28 -79 43 -16 12 20 -1 47 -17z m872 16 c0 -2 -7 -9 -15 -16 -13 -11 -14
-10 -9 4 5 14 24 23 24 12z m-1219 -43 c13 -17 13 -17 -6 -3 -11 8 -22 16 -24
17 -2 2 0 3 6 3 6 0 17 -8 24 -17z m1244 7 c-3 -5 -21 -10 -39 -10 -17 0 -38
-6 -45 -12 -10 -11 -11 -10 -6 4 5 11 21 18 48 21 23 2 43 4 45 5 2 1 0 -2 -3
-8z m-1181 -59 c-2 -3 -12 3 -22 13 -16 17 -16 18 5 5 12 -7 20 -15 17 -18z
m1913 -8 c-3 -10 -5 -4 -5 12 0 17 2 24 5 18 2 -7 2 -21 0 -30z m-1984 -30
c-7 -2 -19 -2 -25 0 -7 3 -2 5 12 5 14 0 19 -2 13 -5z m1948 -51 c-5 -10 -18
-25 -27 -33 -11 -9 -9 -2 6 19 26 35 36 42 21 14z m-311 -76 c0 -2 -8 -10 -17
-17 -16 -13 -17 -12 -4 4 13 16 21 21 21 13z m-1080 -158 c6 -11 6 -18 1 -18
-5 0 -12 -12 -14 -27 -3 -19 -5 -13 -6 17 -1 25 -4 55 -7 68 -6 21 -8 21 -23
8 -9 -8 -35 -22 -56 -31 l-40 -16 30 26 c17 14 35 23 42 21 6 -3 19 4 29 16
18 19 19 19 26 -14 5 -18 13 -41 18 -50z m1107 10 c-2 -13 -4 -3 -4 22 0 25 2
35 4 23 2 -13 2 -33 0 -45z m-297 -68 c0 -8 -11 9 -25 38 -14 30 -25 59 -24
65 1 17 49 -85 49 -103z m-774 18 c4 -7 3 -8 -4 -4 -7 4 -12 2 -12 -5 0 -7 -3
-10 -6 -6 -6 5 3 27 11 27 2 0 7 -5 11 -12z m1088 -4 c3 -8 2 -12 -4 -9 -6 3
-10 10 -10 16 0 14 7 11 14 -7z m-981 -30 c7 1 9 1 5 -1 -5 -3 -8 -17 -8 -32
0 -26 3 -29 52 -34 41 -5 54 -3 65 11 14 16 14 16 9 0 -4 -13 0 -18 16 -18 12
0 19 -3 16 -6 -4 -3 -34 -5 -67 -5 -67 0 -81 -11 -81 -65 0 -23 3 -26 26 -21
15 3 39 1 55 -3 26 -8 29 -5 56 49 25 49 32 56 49 50 10 -4 31 -8 45 -8 27 -1
30 4 49 69 7 23 8 23 9 3 0 -12 -3 -33 -9 -47 -6 -16 -6 -27 0 -31 6 -4 10 -1
10 5 0 6 5 8 11 4 6 -3 15 0 20 7 6 10 9 11 9 2 0 -7 8 -13 19 -13 14 0 17 6
15 28 -2 16 -1 19 2 7 9 -31 23 -42 34 -25 7 11 10 8 10 -15 0 -45 13 -59 46
-51 21 5 25 4 14 -4 -8 -5 -23 -10 -32 -10 -12 0 -18 -8 -18 -23 0 -13 -3 -27
-7 -31 -5 -4 -9 -12 -9 -17 -3 -22 -5 -23 -13 -10 -7 11 -13 7 -25 -20 -13
-29 -15 -30 -13 -9 1 14 -2 26 -8 28 -11 2 -12 -2 -14 -50 0 -17 -4 -28 -8
-24 -4 3 -6 27 -4 51 1 31 -2 45 -11 45 -9 0 -13 14 -11 42 0 24 -4 47 -10 51
-8 6 -5 7 6 3 10 -3 17 0 17 7 0 8 -22 13 -64 14 -59 2 -67 0 -85 -24 -29 -36
-27 -53 7 -53 16 0 32 -3 36 -7 4 -5 13 -8 19 -8 7 0 12 -7 12 -15 0 -8 7 -18
15 -22 24 -11 -10 -9 -35 2 -17 7 -17 9 -2 9 9 1 17 6 17 13 0 6 -3 8 -7 5 -3
-4 -12 -2 -20 4 -7 6 -22 9 -33 6 -11 -3 -27 1 -34 9 -13 12 -16 11 -21 -6 -7
-23 -36 -26 -65 -8 -16 11 -22 9 -34 -7 -13 -17 -15 -18 -16 -3 0 19 -102 54
-122 42 -7 -4 -8 -3 -4 4 4 7 -3 14 -19 18 -14 3 -25 13 -25 21 0 8 5 11 10 8
15 -9 24 23 11 39 -9 11 -9 16 0 22 8 4 9 3 5 -4 -4 -7 -3 -12 2 -12 6 0 13
12 17 27 3 15 9 22 13 16 4 -6 24 -14 44 -18 24 -5 35 -11 31 -19 -3 -6 -2 -7
2 -3 5 4 9 27 8 50 -1 23 1 34 3 25 3 -9 11 -16 17 -14z m504 -21 c-3 -10 -5
-4 -5 12 0 17 2 24 5 18 2 -7 2 -21 0 -30z m-635 9 c3 -11 0 -19 -7 -19 -10 0
-12 13 -6 35 3 7 9 0 13 -16z m395 -24 c-3 -8 -6 -5 -6 6 -1 11 2 17 5 13 3
-3 4 -12 1 -19z m-770 -14 c-3 -3 -12 -4 -19 -1 -8 3 -5 6 6 6 11 1 17 -2 13
-5z m1000 -61 c-3 -10 -5 -2 -5 17 0 19 2 27 5 18 2 -10 2 -26 0 -35z m-24 10
c-7 -2 -21 -2 -30 0 -10 3 -4 5 12 5 17 0 24 -2 18 -5z m174 -15 c-3 -8 -6 -5
-6 6 -1 11 2 17 5 13 3 -3 4 -12 1 -19z m-100 -60 c-3 -7 -5 -2 -5 12 0 14 2
19 5 13 2 -7 2 -19 0 -25z m-2180 16 c-3 -3 -12 -4 -19 -1 -8 3 -5 6 6 6 11 1
17 -2 13 -5z m82 -27 c13 -16 5 -28 -15 -20 -23 9 -16 -23 12 -56 34 -41 23
-39 -21 3 -33 32 -44 64 -28 79 11 12 40 8 52 -6z m1841 -17 c0 -5 -4 -10 -9
-10 -6 0 -13 5 -16 10 -3 6 1 10 9 10 9 0 16 -4 16 -10z m-102 -14 c-7 -8 -15
-10 -18 -6 -3 4 -12 10 -20 13 -8 3 0 6 18 6 28 1 31 -1 20 -13z m322 -26 c0
-5 -6 -12 -12 -16 -7 -4 -10 -4 -6 1 4 4 3 14 -4 22 -8 11 -7 12 6 7 9 -3 16
-10 16 -14z m-53 -39 c-11 -42 -17 -45 -21 -14 -2 10 -11 17 -20 17 -9 -1 -16
5 -16 12 0 12 4 12 21 3 17 -8 23 -8 30 2 4 7 5 17 2 23 -3 5 -1 6 4 3 7 -5 7
-19 0 -46z m-488 18 c19 -4 39 -6 43 -3 4 3 8 1 8 -5 0 -5 10 -12 23 -14 12
-2 1 -2 -25 0 -39 4 -47 2 -50 -14 -3 -15 -10 -12 -42 21 -33 32 -35 37 -15
31 13 -5 40 -12 58 -16z m209 -15 c-3 -14 -5 -12 -10 9 -3 19 -2 25 4 19 6 -6
8 -18 6 -28z m332 -8 c0 -2 -9 -6 -20 -9 -11 -3 -18 -1 -14 4 5 9 34 13 34 5z
m-2230 -39 c0 -4 5 -5 12 -1 6 4 8 3 5 -3 -4 -6 1 -26 10 -44 10 -19 22 -58
28 -88 6 -30 18 -59 27 -64 19 -13 109 12 101 27 -4 6 -3 8 2 4 9 -9 35 9 35
23 0 5 -20 19 -46 31 -39 19 -46 20 -54 8 -5 -8 -10 -10 -10 -4 0 6 11 21 25
34 35 33 83 32 128 -3 l34 -26 22 23 c16 17 19 25 10 28 -8 3 1 11 19 20 18 9
32 13 32 8 0 -4 -8 -11 -17 -14 -15 -6 -15 -8 -3 -16 13 -8 13 -10 -1 -10 -21
0 -48 -30 -28 -30 10 -1 9 -5 -4 -14 -17 -13 -16 -15 8 -44 31 -37 31 -49 0
-64 -28 -13 -24 -27 8 -29 18 -1 19 -2 4 -6 -10 -3 -30 4 -45 14 -15 10 -34
21 -42 25 -12 5 -11 7 4 7 17 1 15 16 -2 16 -18 1 -31 17 -25 33 4 12 -3 9
-23 -9 -49 -45 -62 -49 -211 -64 l-48 -5 49 16 48 15 -6 52 c-4 29 -19 77 -34
107 -30 62 -56 73 -99 45 -14 -10 -22 -12 -18 -5 14 23 67 39 87 26 10 -6 18
-14 18 -19z m1858 26 c-10 -2 -26 -2 -35 0 -10 3 -2 5 17 5 19 0 27 -2 18 -5z
m-1668 -12 c0 -5 -10 -11 -22 -14 -22 -6 -22 -6 -4 8 23 17 26 18 26 6z m107
3 c-3 -3 -12 -4 -19 -1 -8 3 -5 6 6 6 11 1 17 -2 13 -5z m248 -27 c-7 -28 -32
-54 -42 -44 -3 4 0 13 7 22 10 12 10 15 -4 15 -9 0 -16 5 -16 11 0 6 9 9 20 6
11 -3 18 -1 15 3 -3 5 1 10 7 13 18 6 20 3 13 -26z m1393 26 c-10 -2 -26 -2
-35 0 -10 3 -2 5 17 5 19 0 27 -2 18 -5z m-1705 -10 c-7 -2 -19 -2 -25 0 -7 3
-2 5 12 5 14 0 19 -2 13 -5z m1822 -7 c33 -8 49 -14 35 -14 -28 0 -133 25
-110 26 8 1 42 -5 75 -12z m90 -16 c3 -5 -1 -10 -10 -10 -9 0 -13 5 -10 10 3
6 8 10 10 10 2 0 7 -4 10 -10z m-2290 -38 l-28 -27 24 31 c13 17 26 30 28 27
3 -2 -8 -16 -24 -31z m248 31 c-7 -2 -21 -2 -30 0 -10 3 -4 5 12 5 17 0 24 -2
18 -5z m1092 -13 c10 -11 16 -20 13 -20 -3 0 -13 9 -23 20 -10 11 -16 20 -13
20 3 0 13 -9 23 -20z m995 4 c0 -2 -7 -4 -15 -4 -8 0 -15 4 -15 10 0 5 7 7 15
4 8 -4 15 -8 15 -10z m-1583 -81 c94 -71 104 -92 101 -211 l-1 -87 -6 93 c-6
84 -9 95 -31 112 -14 10 -38 21 -55 24 -16 4 -54 17 -83 31 l-53 24 -9 -25
c-6 -14 -10 -36 -10 -50 0 -17 -5 -24 -20 -24 -22 0 -23 1 -14 25 6 13 9 14
16 3 7 -9 8 -8 5 7 -2 11 -9 19 -16 17 -8 -1 -4 8 8 24 26 33 27 54 4 54 -11
1 -4 8 17 19 30 15 40 16 73 5 20 -7 54 -26 74 -41z m-223 35 c-5 -8 -2 -9 9
-5 10 3 17 2 17 -3 0 -6 -14 -10 -32 -10 -30 0 -31 1 -12 15 23 18 27 18 18 3z
m-561 -23 c-3 -9 -8 -14 -10 -11 -3 3 -2 9 2 15 9 16 15 13 8 -4z m877 -10 c0
-8 -10 -19 -22 -25 -21 -10 -21 -10 -5 3 9 8 17 19 17 26 0 6 2 11 5 11 3 0 5
-7 5 -15z m740 -112 c0 -7 -39 17 -46 28 -3 6 5 3 20 -6 14 -10 26 -19 26 -22z
m-884 -22 c16 13 18 -3 4 -36 -7 -17 -9 -17 -9 -2 -1 26 -21 21 -21 -6 0 -12
-7 -33 -16 -46 -12 -17 -14 -25 -5 -30 9 -6 8 -11 -4 -21 -27 -23 -18 -42 19
-39 22 2 39 -3 51 -15 11 -11 27 -16 42 -13 12 2 28 -2 34 -10 15 -17 39 1 40
31 1 18 2 18 6 3 3 -10 -3 -27 -11 -36 -15 -16 -15 -19 -1 -31 16 -14 21 -70
5 -70 -5 0 -7 6 -4 13 2 7 -10 21 -27 31 l-31 18 12 -23 c7 -13 22 -35 34 -47
17 -20 21 -34 19 -85 -3 -79 -32 -168 -58 -182 -13 -6 -19 -18 -17 -33 2 -13
-3 -24 -12 -28 -12 -5 -13 -11 -6 -24 6 -10 10 -29 10 -41 0 -24 -58 -150 -75
-161 -17 -13 -30 -9 -14 5 9 6 28 40 43 75 l27 63 -31 37 c-17 20 -34 41 -38
45 -10 11 -123 77 -132 77 -4 0 -22 -29 -41 -65 -35 -70 -48 -78 -29 -20 10
30 9 39 -3 53 -14 15 -13 19 4 41 17 20 19 21 19 5 0 -16 3 -16 19 6 11 13 18
28 15 31 -2 4 -1 14 2 23 8 20 34 21 34 1 0 -9 6 -12 15 -9 8 4 15 10 15 15 0
5 -7 9 -15 9 -17 0 -20 16 -5 25 6 4 7 13 1 24 -23 42 44 171 88 171 10 0 5 7
-13 19 -17 11 -34 17 -39 14 -6 -3 -7 -1 -3 5 3 6 -2 15 -11 21 -16 9 -16 10
4 11 26 0 43 44 24 63 -14 14 -15 74 -1 82 7 4 9 -2 4 -19 -3 -14 -3 -34 1
-43 5 -14 11 -8 25 27 10 25 22 59 25 75 4 17 10 24 12 17 4 -10 8 -10 19 -1z
m-104 -44 c-3 -12 -7 -16 -10 -9 -3 10 -7 10 -19 1 -13 -11 -12 -15 7 -29 22
-17 22 -17 -7 -13 -34 5 -97 -22 -88 -37 4 -6 12 -10 18 -10 7 0 6 4 -3 10 -9
6 -10 10 -3 10 19 0 24 -17 9 -29 -11 -9 -15 -9 -18 0 -5 14 -17 10 -73 -27
-38 -26 -39 -26 -20 -4 35 41 87 84 119 100 17 8 33 17 36 21 38 50 45 57 51
48 4 -6 4 -21 1 -32z m1089 6 c13 -16 12 -17 -3 -4 -17 13 -22 21 -14 21 2 0
10 -8 17 -17z m-1691 -7 c0 -2 -8 -10 -17 -17 -16 -13 -17 -12 -4 4 13 16 21
21 21 13z m1770 -42 c0 -2 -13 2 -30 11 -16 9 -30 18 -30 21 0 2 14 -2 30 -11
17 -9 30 -18 30 -21z m179 -100 c8 -7 -25 7 -72 32 -48 25 -89 49 -92 54 -7
12 144 -68 164 -86z m-1363 63 c4 -4 0 -7 -9 -7 -11 0 -17 -8 -17 -25 0 -19 4
-23 18 -18 16 7 16 6 0 -11 -10 -9 -18 -22 -18 -28 0 -6 -3 -8 -7 -4 -4 4 -6
27 -4 52 2 29 -1 44 -7 40 -6 -4 -13 -2 -16 3 -7 10 50 9 60 -2z m-523 -40
c-15 -19 -30 -32 -32 -30 -5 3 49 63 57 63 2 0 -9 -15 -25 -33z m317 29 c0 -2
-7 -6 -15 -10 -8 -3 -15 -1 -15 4 0 6 7 10 15 10 8 0 15 -2 15 -4z m1615 -76
c3 -6 -1 -7 -9 -4 -18 7 -21 14 -7 14 6 0 13 -4 16 -10z m-1435 -24 c0 -2 -8
-10 -17 -17 -16 -13 -17 -12 -4 4 13 16 21 21 21 13z m-444 -41 c-21 -19 -40
-35 -44 -35 -3 0 11 16 31 35 20 19 40 35 43 35 4 0 -10 -16 -30 -35z m454
-25 c0 -33 -3 -40 -20 -40 -24 0 -25 6 -5 26 8 9 15 24 15 35 0 10 2 19 5 19
3 0 5 -18 5 -40z m1347 -46 c-3 -3 -12 -4 -19 -1 -8 3 -5 6 6 6 11 1 17 -2 13
-5z m68 -14 l20 -9 -20 0 c-11 0 -27 4 -35 9 -13 9 -13 10 0 9 8 0 24 -4 35
-9z m58 -17 c-7 -2 -19 -2 -25 0 -7 3 -2 5 12 5 14 0 19 -2 13 -5z m-1993 -27
c0 -2 -8 -10 -17 -17 -16 -13 -17 -12 -4 4 13 16 21 21 21 13z m476 -28 c-3
-18 -5 -43 -5 -55 -1 -13 -5 -23 -11 -23 -6 0 -7 15 -4 38 3 20 7 45 7 55 1 9
5 17 9 17 4 0 6 -15 4 -32z m21 -10 c-3 -8 -6 -5 -6 6 -1 11 2 17 5 13 3 -3 4
-12 1 -19z m-537 4 c0 -4 -10 -13 -22 -21 -23 -14 -23 -14 -4 8 20 22 26 25
26 13z m288 -42 c-22 -30 -35 -41 -22 -17 9 16 36 47 41 47 2 0 -6 -13 -19
-30z m99 -56 c-3 -3 -12 -4 -19 -1 -8 3 -5 6 6 6 11 1 17 -2 13 -5z m-461
-108 c-15 -13 -39 -37 -53 -52 l-24 -29 17 28 c9 15 31 39 48 52 40 32 51 32
12 1z m688 5 c3 -5 -1 -11 -9 -14 -9 -4 -12 -1 -8 9 6 16 10 17 17 5z m-293
-64 c-13 -13 -15 1 -4 30 7 17 8 17 11 -1 2 -10 -1 -23 -7 -29z m-361 -1 c0
-2 -9 -6 -20 -9 -11 -3 -20 -1 -20 4 0 5 9 9 20 9 11 0 20 -2 20 -4z m347 -38
c-3 -8 -6 -5 -6 6 -1 11 2 17 5 13 3 -3 4 -12 1 -19z m120 -30 c-3 -7 -5 -2
-5 12 0 14 2 19 5 13 2 -7 2 -19 0 -25z m-184 -131 c8 -6 5 -7 -6 -3 -14 5
-22 -4 -39 -44 -11 -28 -24 -50 -29 -50 -4 0 -2 12 6 26 7 15 22 53 32 85 17
54 18 56 21 26 2 -17 9 -36 15 -40z m-150 -157 c2 -30 2 -47 0 -37 -3 10 -10
16 -17 14 -7 -3 -11 5 -10 22 1 14 3 49 4 76 2 49 2 49 10 15 4 -19 10 -60 13
-90z m47 40 c0 -5 -4 -10 -10 -10 -5 0 -10 5 -10 10 0 6 5 10 10 10 6 0 10 -4
10 -10z"/>
<path d="M4858 3243 c-25 -6 -30 -31 -13 -63 16 -30 54 -48 76 -34 8 4 9 3 5
-4 -4 -7 -1 -12 6 -12 9 0 15 14 16 40 3 42 2 43 -51 54 -15 4 -25 11 -22 16
3 6 5 9 3 9 -2 -1 -10 -3 -20 -6z"/>
<path d="M5286 3193 c-12 -13 -6 -20 17 -18 12 1 14 0 5 -2 -42 -11 -53 -84
-13 -92 11 -2 24 -8 28 -15 6 -7 7 -4 3 7 -3 9 -1 17 4 17 5 0 17 11 26 25 14
21 14 28 3 42 -8 9 -9 14 -2 10 7 -5 9 -1 6 11 -3 13 -15 19 -37 20 -19 1 -36
-2 -40 -5z"/>
<path d="M3475 2800 c-4 -6 3 -10 15 -10 13 0 24 -9 30 -25 6 -17 14 -23 25
-19 11 5 13 10 5 19 -5 6 -8 15 -5 18 3 4 2 5 -2 2 -3 -3 -11 -1 -17 4 -20 15
-45 20 -51 11z"/>
<path d="M3706 2511 c-17 -7 -15 -10 17 -30 28 -17 44 -21 73 -15 34 6 36 8
19 20 -10 8 -31 14 -47 14 -15 0 -28 5 -28 10 0 11 -7 12 -34 1z"/>
<path d="M3694 2404 c-20 -29 -32 -124 -16 -124 5 0 13 7 16 16 5 12 8 13 20
2 12 -11 12 -15 -3 -29 -11 -11 -18 -13 -23 -5 -4 6 -10 7 -14 3 -4 -3 -1 -13
5 -21 7 -8 9 -21 5 -28 -4 -7 -3 -10 1 -5 5 4 15 1 24 -6 21 -18 101 -49 101
-40 0 4 7 -3 16 -15 35 -51 56 -22 73 103 10 69 9 80 -5 97 -10 10 -21 18 -25
18 -4 0 -20 5 -36 12 -15 6 -32 10 -36 9 -5 -1 -6 3 -2 8 7 13 -27 31 -59 31
-16 0 -32 -9 -42 -26z m68 -89 c-13 -33 -29 -64 -35 -70 -7 -7 -8 -4 -2 10 4
11 8 27 8 35 0 8 6 24 13 35 18 26 18 39 -1 31 -8 -3 -15 -1 -15 3 0 11 15 17
39 17 15 0 14 -7 -7 -61z"/>
<path d="M3738 2120 c41 -25 54 -25 23 0 -13 11 -31 20 -40 20 -9 0 -3 -8 17
-20z"/>
<path d="M3728 6273 c7 -3 16 -2 19 1 4 3 -2 6 -13 5 -11 0 -14 -3 -6 -6z"/>
<path d="M3795 6270 c-24 -5 -13 -9 60 -23 50 -9 122 -19 160 -22 85 -8 275
-46 275 -55 0 -4 10 -6 23 -5 16 2 17 1 3 -2 -19 -5 -19 -6 5 -25 17 -14 10
-13 -23 6 -55 31 -194 66 -260 66 -37 0 -50 -5 -62 -22 -18 -25 -21 -17 -6 12
9 17 4 19 -58 24 -37 4 -98 13 -137 21 -96 21 -100 20 -68 -15 19 -20 44 -33
73 -39 l45 -9 -39 -1 c-32 -1 -37 -4 -31 -18 4 -10 10 -26 12 -36 4 -12 11
-16 22 -12 9 4 40 11 68 17 29 6 50 15 47 19 -6 10 10 12 19 2 11 -10 70 -7
94 5 12 7 41 11 65 10 39 -1 40 -2 8 -5 -19 -2 -46 -6 -60 -9 -22 -6 -18 -8
25 -19 73 -19 234 -78 230 -84 -1 -3 12 -6 31 -7 l34 -1 -41 39 c-22 21 -46
38 -52 38 -5 0 -8 3 -4 6 3 3 26 -8 51 -25 42 -29 68 -28 50 2 -6 9 -5 9 7 0
9 -8 20 -9 29 -3 26 16 36 11 12 -6 -13 -9 -21 -22 -18 -30 3 -8 0 -11 -10 -7
-10 4 -12 0 -8 -11 3 -9 13 -16 20 -16 8 0 37 -11 65 -25 27 -14 54 -23 60
-20 5 4 8 1 7 -5 -5 -21 242 -137 263 -124 5 3 9 0 9 -5 0 -6 7 -11 15 -11 8
0 15 5 15 11 0 6 6 9 13 6 6 -2 12 -11 12 -21 0 -9 7 -21 15 -27 11 -8 9 -9
-10 -3 -14 4 -26 11 -28 15 -2 5 -8 9 -13 9 -28 0 -206 76 -282 120 -93 53
-106 57 -124 39 -9 -9 -16 -8 -28 5 -9 9 -27 16 -40 16 -13 0 -25 4 -27 8 -3
10 -210 62 -248 63 -14 0 -34 5 -45 10 -28 12 64 1 139 -17 32 -8 60 -13 62
-11 2 2 -29 16 -69 32 -74 29 -164 40 -160 18 3 -14 -20 -11 -41 6 -13 11 -27
11 -79 1 -34 -6 -70 -16 -79 -21 -25 -14 -19 -52 15 -91 20 -23 27 -27 23 -13
-5 18 -4 17 14 -4 11 -13 20 -20 20 -17 0 4 13 -7 30 -24 28 -29 80 -42 80
-20 0 5 10 14 23 20 20 10 20 10 4 -3 -15 -13 -8 -15 72 -19 49 -2 95 -9 103
-14 18 -15 136 -60 178 -69 l35 -8 -25 21 c-22 19 -19 18 25 -3 28 -14 86 -30
130 -36 127 -17 205 -37 272 -69 66 -33 127 -85 137 -118 10 -31 65 -46 105
-29 l32 13 -26 12 c-28 13 -45 48 -45 91 0 22 -7 31 -31 41 -22 10 -27 15 -17
21 21 14 41 10 35 -5 -9 -23 36 -28 77 -7 l38 18 -30 29 c-38 37 -125 84 -157
84 -14 0 -42 -7 -62 -15 -19 -8 -41 -15 -47 -14 -6 0 8 8 31 17 65 27 69 36
26 56 -21 9 -51 18 -68 19 -25 2 -30 -1 -27 -18 2 -20 2 -20 -10 0 -31 52
-101 92 -140 79 -13 -4 -18 -2 -14 5 4 6 -7 15 -26 21 l-33 10 35 -6 c19 -4
45 -7 58 -8 12 -1 22 -4 22 -8 0 -5 6 -8 14 -8 8 0 28 -12 46 -26 18 -16 46
-28 68 -29 20 -2 62 -14 93 -28 44 -21 62 -24 91 -18 57 13 154 -44 204 -118
16 -24 40 -44 65 -54 38 -15 40 -15 28 1 -20 25 -159 165 -159 159 0 -3 -19
13 -42 35 -24 21 -70 55 -103 75 -33 20 -62 40 -65 45 -9 13 -191 94 -260 116
-63 20 -126 35 -200 47 -19 4 -57 10 -85 15 -61 11 -400 31 -470 28 -27 -1
-63 -4 -80 -8z m85 -100 c11 -8 7 -9 -15 -4 -37 8 -45 14 -19 14 10 0 26 -5
34 -10z m310 -20 c13 -9 13 -10 0 -9 -8 1 -26 5 -40 9 l-25 8 25 1 c14 0 32
-4 40 -9z m220 0 l25 -8 -25 -1 c-14 0 -32 4 -40 9 -13 9 -13 10 0 9 8 -1 26
-5 40 -9z m-173 -16 c-3 -3 -12 -4 -19 -1 -8 3 -5 6 6 6 11 1 17 -2 13 -5z
m368 -23 c50 -15 99 -33 110 -39 11 -6 43 -18 71 -27 60 -18 142 -69 120 -73
-8 -2 -32 5 -53 16 -34 17 -81 33 -108 37 -21 4 -50 19 -57 31 -8 12 -166 68
-218 77 -19 3 -17 5 10 6 19 0 76 -12 125 -28z m-86 -40 c9 -6 -8 -9 -47 -8
-33 1 -55 5 -49 9 16 11 79 10 96 -1z m-219 -81 c0 -12 7 -11 -144 -13 -112
-2 -116 -1 -65 9 69 15 209 17 209 4z m675 -48 c-3 -3 -11 0 -18 7 -9 10 -8
11 6 5 10 -3 15 -9 12 -12z m-65 -152 c8 -5 11 -10 5 -10 -5 0 -17 5 -25 10
-8 5 -10 10 -5 10 6 0 17 -5 25 -10z"/>
<path d="M3360 6235 c-36 -7 -85 -13 -110 -14 -66 -2 -278 -57 -349 -91 -34
-17 -65 -30 -69 -30 -4 0 -22 -13 -40 -29 -17 -16 -40 -32 -49 -35 -10 -3 -49
-35 -88 -71 -38 -36 -73 -65 -77 -65 -5 0 -8 -5 -8 -11 0 -13 53 -3 58 12 6
15 34 43 113 112 104 91 168 105 282 61 10 -3 17 2 21 14 10 31 64 82 109 103
53 24 107 23 177 -1 30 -11 58 -19 62 -20 11 0 78 61 78 71 0 11 -27 10 -110
-6z"/>
<path d="M3585 6214 c-95 -28 -135 -46 -145 -65 -13 -23 -3 -25 22 -2 10 9 20
14 23 11 3 -3 -13 -17 -35 -32 -41 -27 -49 -41 -27 -49 6 -2 9 -7 6 -11 -4 -4
-24 3 -45 15 l-39 22 28 -25 c23 -22 37 -26 100 -27 40 -1 99 -6 131 -11 55
-9 59 -8 84 16 15 14 39 30 54 36 25 9 26 12 15 36 -21 48 -35 53 -127 48 -47
-3 -96 -7 -110 -10 -14 -3 -5 1 20 9 25 8 71 17 103 21 53 5 57 7 40 20 -22
17 -35 16 -98 -2z"/>
<path d="M3165 6166 c-16 -8 -39 -24 -50 -37 -73 -85 -59 -112 18 -34 89 88
93 98 32 71z"/>
<path d="M3244 6164 c-12 -3 -34 -18 -50 -35 l-28 -29 32 11 c33 11 136 8 179
-6 21 -7 22 -5 14 34 -1 2 -9 -3 -18 -10 -16 -13 -17 -12 -4 4 8 9 11 20 8 23
-7 7 -108 13 -133 8z"/>
<path d="M3955 6130 c3 -5 11 -10 16 -10 6 0 7 5 4 10 -3 6 -11 10 -16 10 -6
0 -7 -4 -4 -10z"/>
<path d="M3203 6090 c-22 -10 -44 -28 -48 -39 -3 -12 -16 -26 -28 -33 -21 -10
-21 -10 -7 7 14 17 14 17 -7 5 l-22 -14 20 -28 c27 -37 47 -47 117 -57 55 -8
55 -9 14 -10 -24 0 -41 -5 -38 -10 3 -5 -19 4 -50 21 -56 30 -93 39 -173 39
-100 0 -139 -38 -111 -105 25 -61 24 -111 -5 -173 -15 -32 -29 -53 -32 -46 -2
7 1 21 7 33 13 24 -1 50 -27 50 -11 0 -13 7 -9 25 5 20 3 25 -11 25 -16 0 -16
-2 -3 -11 11 -8 5 -9 -23 -4 -21 3 -52 3 -69 0 -26 -6 -29 -10 -23 -33 23 -86
23 -98 -9 -152 -29 -50 -75 -84 -139 -104 -17 -5 -17 -8 -3 -27 17 -25 6 -59
-19 -59 -19 0 -36 33 -25 50 14 23 1 35 -40 38 -33 2 -45 -2 -66 -25 -67 -71
-76 -89 -75 -153 0 -91 10 -98 62 -47 18 17 27 23 19 12 -7 -11 -25 -31 -39
-43 -17 -15 -22 -26 -14 -29 7 -2 10 -10 7 -17 -3 -7 2 -26 11 -42 8 -16 15
-36 15 -44 0 -8 -12 8 -26 35 -15 28 -31 53 -36 56 -5 3 -9 9 -9 13 5 22 -13
105 -21 100 -6 -4 -8 -21 -6 -39 2 -19 0 -31 -4 -29 -12 7 -10 82 2 105 6 10
7 19 2 19 -10 0 -32 -59 -32 -88 0 -11 -5 -24 -10 -27 -6 -4 -8 -10 -5 -15 3
-5 -5 -33 -19 -62 -14 -29 -26 -57 -26 -63 -1 -5 -8 -17 -15 -25 -22 -24 -45
-145 -44 -228 l1 -77 28 105 c16 58 34 113 40 122 5 10 11 37 11 60 l2 43 6
-40 7 -40 8 48 c4 27 10 47 13 44 2 -3 -1 -32 -7 -64 -7 -32 -16 -110 -20
-173 l-9 -115 3 119 c4 132 -4 130 -38 -10 -16 -65 -16 -75 -3 -101 10 -19 12
-34 6 -44 -6 -11 -9 -8 -9 11 0 14 -5 32 -10 40 -8 12 -10 10 -10 -10 -2 -48
-10 -116 -21 -172 -10 -52 -9 -60 14 -110 13 -29 27 -65 31 -80 3 -15 13 -34
22 -43 9 -9 14 -19 10 -22 -9 -10 -33 26 -57 87 -30 74 -41 84 -34 30 8 -63
36 -163 50 -178 15 -16 35 12 59 81 15 45 23 177 10 177 -11 0 -49 -23 -56
-34 -5 -6 -8 -2 -8 10 0 17 8 23 36 29 l36 6 -4 54 c-3 52 4 61 16 20 6 -24
-2 89 -9 125 -4 20 -4 21 3 5 9 -19 9 -19 20 0 6 11 14 17 17 13 4 -4 0 -14
-9 -23 -8 -9 -14 -26 -12 -38 3 -12 5 -48 5 -81 1 -55 2 -58 22 -53 17 4 19 3
10 -6 -17 -17 -14 -27 12 -37 15 -6 17 -9 6 -9 -9 -1 -22 6 -29 14 -25 30 -30
13 -27 -97 4 -108 7 -123 46 -198 4 -8 21 -22 37 -30 28 -14 28 -15 6 -18 -20
-3 -23 -8 -17 -30 9 -38 73 -143 104 -169 31 -26 78 -29 138 -8 22 8 50 12 61
10 16 -3 21 3 24 31 4 34 4 34 -31 29 -29 -5 -33 -4 -18 5 10 6 28 10 40 8 17
-2 21 -9 19 -29 -1 -18 7 -34 28 -52 37 -33 48 -34 56 -2 8 34 22 32 17 -2
l-4 -28 16 28 c21 36 14 53 -24 62 -23 5 -31 12 -30 28 0 15 2 17 6 7 12 -32
52 -41 54 -12 1 11 4 8 8 -8 7 -24 9 -22 35 28 23 45 25 56 14 70 -11 15 -11
15 3 4 15 -11 19 -7 38 30 15 32 18 44 8 50 -9 6 -8 8 3 8 19 0 90 92 91 117
0 11 3 13 6 5 3 -8 20 0 51 26 52 44 84 62 104 61 7 0 3 -4 -10 -10 -31 -12
-132 -91 -132 -103 0 -5 8 -19 17 -30 16 -19 15 -19 -6 1 l-24 22 -19 -24
c-10 -13 -18 -27 -18 -32 0 -6 311 9 316 16 8 9 49 41 57 44 8 3 5 12 -8 26
-18 21 -27 22 -95 18 -41 -2 -59 -2 -40 0 19 3 39 8 45 12 5 5 19 7 31 6 16
-1 20 3 16 22 -4 22 -7 23 -92 36 -14 3 2 5 34 6 53 1 58 3 41 14 -10 8 -25
29 -34 48 -16 34 -17 34 -82 34 -81 0 -163 -34 -178 -74 -6 -17 -10 -20 -10
-9 -2 32 -77 -10 -111 -62 -18 -27 -30 -38 -30 -27 0 9 4 17 10 17 5 0 7 7 4
15 -7 17 -40 20 -49 5 -3 -5 -14 -10 -24 -10 -10 0 -44 -13 -75 -28 -57 -30
-71 -29 -37 2 19 18 19 19 -13 64 -19 26 -37 58 -41 70 -6 19 -12 23 -33 18
-26 -6 -26 -6 -5 7 21 12 22 14 8 41 -8 15 -15 36 -15 45 0 23 -69 165 -77
157 -3 -3 -17 -23 -29 -43 -13 -21 -24 -32 -24 -24 0 11 -3 11 -15 1 -15 -12
-67 -8 -93 8 -7 5 -15 29 -18 55 -5 40 -3 49 20 71 29 30 85 35 111 10 23 -23
28 -12 10 22 -8 16 -15 36 -15 44 0 8 12 -8 27 -37 15 -28 30 -50 33 -48 4 2
6 -6 5 -18 -2 -26 14 -67 27 -67 4 0 8 -8 8 -17 0 -10 7 -26 15 -36 13 -18 14
-16 18 15 3 23 4 17 5 -21 3 -72 20 -128 43 -134 14 -4 19 2 21 27 l3 31 19
-35 c10 -19 15 -32 11 -28 -5 5 -16 -4 -25 -20 -16 -26 -16 -29 1 -62 10 -19
25 -43 32 -52 15 -19 62 -24 71 -9 4 5 25 12 49 16 57 10 83 25 32 20 l-40 -5
35 10 c19 5 46 12 60 14 18 3 182 78 197 90 4 4 -29 142 -36 149 -5 5 -13 -4
-19 -20 -12 -34 -41 -73 -42 -56 0 7 10 41 23 75 12 35 21 73 19 85 -3 21 -3
21 -35 3 -18 -10 -43 -21 -57 -24 -20 -5 -19 -3 7 11 23 11 37 29 47 60 l15
43 -40 50 c-22 27 -44 50 -50 50 -6 0 -7 5 -4 10 3 6 2 10 -3 10 -6 0 -15 -14
-21 -32 -6 -17 -13 -29 -16 -27 -2 3 2 23 10 44 12 37 12 41 -5 47 -22 8 -54
64 -45 78 3 6 2 10 -2 10 -11 0 -17 39 -17 110 0 38 -5 60 -17 70 -21 20 -42
60 -35 68 3 3 6 0 6 -6 0 -6 12 -25 27 -42 l27 -33 23 29 c17 20 22 23 17 9
-4 -11 -12 -23 -16 -26 -12 -8 -29 -80 -21 -91 6 -11 33 10 33 26 0 16 80 56
112 56 14 0 38 -6 54 -14 25 -13 30 -13 52 5 29 23 46 25 38 4 -9 -24 2 -18
39 24 44 49 160 119 240 146 33 11 65 24 72 28 13 8 234 47 269 47 21 0 23 3
14 19 -14 27 -13 31 8 25 14 -5 15 -4 2 5 -12 8 -19 5 -34 -12 l-18 -22 15 26
c8 14 17 39 20 55 l4 29 2 -27 c1 -31 12 -36 31 -13 7 8 25 21 41 29 59 29
160 -20 174 -85 5 -23 13 -29 43 -34 20 -4 50 -9 66 -12 19 -3 26 -2 22 6 -4
6 6 4 21 -4 15 -8 51 -21 79 -29 27 -8 57 -18 66 -21 13 -5 18 1 21 32 l4 38
1 -43 c2 -39 4 -42 21 -32 26 13 41 12 17 -1 -16 -10 -14 -13 20 -30 66 -33
84 -45 129 -88 30 -28 42 -35 41 -23 0 9 -8 23 -16 30 -8 8 -9 11 -2 7 8 -4
12 4 12 29 0 42 27 74 70 83 17 3 30 8 30 12 0 4 12 8 27 9 34 3 44 12 12 12
-19 0 -21 2 -9 10 12 8 10 10 -10 9 -39 -2 -79 18 -92 46 -6 14 -14 25 -18 25
-6 0 -7 24 -2 79 1 11 14 34 28 51 15 17 25 32 23 34 -14 13 -179 62 -186 55
-4 -4 -34 -1 -66 8 -34 10 -53 20 -46 24 33 20 -215 70 -275 55 -37 -9 -55
-73 -31 -109 13 -21 27 -27 73 -32 81 -9 88 -15 15 -12 -63 3 -77 -5 -51 -31
9 -9 9 -12 1 -12 -7 0 -15 10 -19 23 -4 12 -9 24 -13 27 -3 3 -11 14 -17 25
-11 20 -24 21 -74 8 -21 -6 -16 -8 25 -13 l50 -7 -55 -2 -55 -1 76 -45 c47
-27 89 -61 109 -87 31 -41 31 -41 -19 10 -28 28 -57 52 -64 52 -7 0 -40 14
-74 30 -49 24 -71 29 -105 26 -34 -4 -37 -4 -13 3 l30 8 -25 6 c-14 4 -47 12
-75 17 -27 6 -58 13 -68 16 -10 3 -17 2 -16 -3 1 -4 1 -24 0 -43 -1 -31 -7
-38 -46 -57 -25 -13 -57 -23 -72 -24 -27 -1 -27 -1 7 -14 l35 -13 -30 -1 c-16
0 -41 8 -55 19 -22 17 -23 20 -6 20 18 0 18 1 -2 18 -12 10 -24 36 -27 58 -8
48 19 89 65 99 16 4 32 10 35 15 6 9 -81 22 -157 24 -27 1 -46 5 -45 10 5 15
123 6 211 -15 44 -10 82 -16 85 -14 2 3 -1 5 -7 5 -8 0 -11 13 -8 36 3 25 1
34 -7 31 -7 -3 -21 -8 -32 -12 -16 -5 -17 -5 -5 4 16 11 17 10 -32 39 -20 13
-39 29 -42 37 -4 10 -20 15 -52 15 -38 0 -45 -3 -40 -16 4 -9 -8 -2 -24 17
-28 29 -29 34 -14 42 13 8 14 11 3 18 -22 14 -81 9 -126 -11z m-56 -314 c92
-35 121 -63 42 -40 -67 20 -131 54 -137 74 -4 11 -2 13 9 4 8 -5 46 -23 86
-38z m1013 -36 c24 -15 7 -18 -25 -4 -23 10 -25 13 -10 13 11 1 27 -3 35 -9z
m67 -16 c-3 -3 -12 -4 -19 -1 -8 3 -5 6 6 6 11 1 17 -2 13 -5z m-984 -31 c-13
-2 -33 -2 -45 0 -13 2 -3 4 22 4 25 0 35 -2 23 -4z m777 -3 c0 -5 -2 -10 -4
-10 -3 0 -8 5 -11 10 -3 6 -1 10 4 10 6 0 11 -4 11 -10z m-865 -12 c-11 -6
-31 -20 -45 -32 -14 -11 -11 -6 7 12 18 17 38 32 45 32 7 0 4 -6 -7 -12z m152
6 c-3 -3 -12 -4 -19 -1 -8 3 -5 6 6 6 11 1 17 -2 13 -5z m256 -41 c-7 -2 -19
-2 -25 0 -7 3 -2 5 12 5 14 0 19 -2 13 -5z m-493 -37 c0 -2 -8 -10 -17 -17
-16 -13 -17 -12 -4 4 13 16 21 21 21 13z m1000 -41 c14 -19 14 -19 -2 -6 -10
7 -18 18 -18 24 0 6 1 8 3 6 1 -2 9 -13 17 -24z m-1012 -4 c9 -5 2 -10 -24
-14 -21 -4 -40 -4 -43 -2 -2 3 4 6 15 6 10 1 3 5 -16 9 l-35 7 45 2 c25 0 51
-3 58 -8z m-258 -73 c0 -9 4 -8 10 2 5 8 10 10 10 4 0 -6 -10 -19 -22 -30 -17
-15 -20 -15 -9 -2 11 15 10 18 -13 24 -16 4 -36 -1 -55 -12 -27 -16 -29 -19
-15 -38 8 -11 14 -27 13 -36 0 -9 -4 -6 -9 8 -12 29 -60 30 -85 2 -10 -11 -23
-20 -28 -20 -6 0 3 12 19 26 l29 26 -35 -7 c-20 -4 -45 -18 -57 -33 -26 -31
-23 -38 9 -22 22 11 22 11 -2 -9 -14 -11 -28 -21 -31 -21 -4 0 -14 -17 -23
-37 l-16 -38 6 33 6 33 -38 -26 c-20 -14 -42 -25 -48 -25 -6 0 -2 6 9 12 59
32 88 57 106 90 15 29 28 40 59 48 22 5 57 15 79 20 21 6 44 17 51 25 15 18
80 20 80 3z m-313 -270 c-2 -13 -4 -5 -4 17 -1 22 1 32 4 23 2 -10 2 -28 0
-40z m-207 -17 c0 -5 -7 -12 -16 -15 -14 -5 -15 -4 -4 9 14 17 20 19 20 6z
m234 -57 c3 -8 2 -12 -4 -9 -6 3 -10 10 -10 16 0 14 7 11 14 -7z m126 -36 c7
-18 25 -46 39 -63 l26 -30 -29 26 c-26 24 -76 117 -57 105 5 -3 14 -20 21 -38z
m-446 3 c3 -5 -1 -11 -9 -14 -9 -4 -12 -1 -8 9 6 16 10 17 17 5z m365 -61 c11
-24 11 -24 -3 -6 -9 11 -16 24 -16 30 0 12 5 7 19 -24z m-192 -2 c-3 -8 -6 -5
-6 6 -1 11 2 17 5 13 3 -3 4 -12 1 -19z m83 2 c-6 -11 -13 -20 -16 -20 -2 0 0
9 6 20 6 11 13 20 16 20 2 0 0 -9 -6 -20z m174 -113 c14 -26 36 -62 49 -80 12
-18 23 -34 24 -36 1 -2 18 4 37 13 39 18 86 70 86 93 0 9 3 13 7 10 3 -4 -2
-24 -11 -44 -19 -43 -73 -79 -150 -99 -69 -19 -81 -16 -23 5 l48 17 -19 24
c-10 14 -31 48 -46 75 -16 28 -32 54 -37 60 -5 5 -9 14 -9 19 0 15 14 -3 44
-57z m134 -22 c-3 -3 -9 2 -12 12 -6 14 -5 15 5 6 7 -7 10 -15 7 -18z m-15
-135 c8 -11 17 -17 22 -12 5 4 5 0 1 -8 -4 -9 -1 -7 7 3 14 16 15 16 21 -13 9
-43 16 -99 10 -75 -12 48 -14 51 -25 35 -9 -13 -10 -13 -6 0 3 8 -12 32 -31
53 -20 20 -31 37 -25 37 7 0 18 -9 26 -20z m-166 -6 c-3 -3 -12 -4 -19 -1 -8
3 -5 6 6 6 11 1 17 -2 13 -5z m-410 -96 c-3 -8 -6 -5 -6 6 -1 11 2 17 5 13 3
-3 4 -12 1 -19z m603 -2 c0 -19 -46 -73 -74 -88 -11 -6 -2 8 22 32 23 23 42
49 42 56 0 8 2 14 5 14 3 0 5 -6 5 -14z m-580 -47 c0 -6 -4 -7 -10 -4 -5 3
-10 11 -10 16 0 6 5 7 10 4 6 -3 10 -11 10 -16z m314 -108 c3 -4 -1 -17 -10
-27 -14 -18 -15 -18 -5 3 8 16 8 23 -2 26 -9 4 -9 6 0 6 6 1 14 -3 17 -8z
m-127 -43 c-3 -7 -5 -2 -5 12 0 14 2 19 5 13 2 -7 2 -19 0 -25z m32 -73 c0 -5
-6 1 -14 15 -8 14 -14 30 -14 35 0 6 6 -1 14 -15 8 -14 14 -29 14 -35z m548
13 c-3 -7 -5 -2 -5 12 0 14 2 19 5 13 2 -7 2 -19 0 -25z m-500 -20 c-3 -8 -6
-5 -6 6 -1 11 2 17 5 13 3 -3 4 -12 1 -19z m-10 -65 c-3 -10 -5 -2 -5 17 0 19
2 27 5 18 2 -10 2 -26 0 -35z m743 24 c0 -2 -10 -12 -22 -23 l-23 -19 19 23
c18 21 26 27 26 19z m-393 -39 c-3 -7 -5 -2 -5 12 0 14 2 19 5 13 2 -7 2 -19
0 -25z m-336 -73 c5 4 9 16 9 28 1 22 1 22 16 2 8 -11 17 -19 19 -17 18 9 54
-2 78 -23 35 -34 35 -68 -3 -124 -23 -34 -27 -47 -18 -53 8 -5 9 -8 2 -8 -6 0
-17 7 -24 15 -7 8 -19 15 -27 15 -20 0 -63 100 -67 157 -2 26 -2 38 1 25 2
-12 9 -20 14 -17z m372 -18 c21 -2 15 -4 -18 -5 -27 0 -44 2 -37 5 6 2 13 14
13 26 l2 22 4 -22 c3 -16 13 -23 36 -26z"/>
<path d="M2427 6015 c-314 -243 -584 -583 -748 -944 -309 -678 -315 -1426 -18
-2103 159 -363 424 -709 739 -962 l84 -68 18 74 c54 216 70 459 44 658 -21
156 -97 464 -126 505 -3 6 -15 33 -25 60 -23 66 -125 269 -136 273 -5 2 -9 8
-9 12 0 9 -39 80 -92 170 -27 46 -98 187 -137 271 -43 94 -99 300 -118 432
-12 87 -14 157 -9 312 8 280 44 455 141 695 92 225 197 381 389 578 116 118
111 112 105 112 -2 0 -48 -34 -102 -75z"/>
<path d="M4238 6053 c7 -3 16 -2 19 1 4 3 -2 6 -13 5 -11 0 -14 -3 -6 -6z"/>
<path d="M3510 6002 c25 -22 48 -38 53 -35 4 2 7 17 7 34 0 22 -5 29 -19 29
-10 0 -34 3 -52 6 l-34 6 45 -40z"/>
<path d="M2844 6015 c-17 -13 -17 -14 -1 -15 9 0 17 -7 17 -15 0 -18 1 -18 59
-4 24 5 64 10 88 11 23 0 43 2 43 4 0 2 -16 11 -36 19 -47 19 -144 20 -170 0z"/>
<path d="M2692 5950 c-50 -36 -50 -51 -1 -62 47 -9 62 7 52 56 l-8 37 -43 -31z"/>
<path d="M4990 5885 c33 -19 46 -19 30 0 -7 8 -22 15 -34 15 -20 -1 -20 -2 4
-15z"/>
<path d="M5070 5862 c0 -21 31 -45 78 -63 26 -10 26 -10 -8 26 -48 50 -70 62
-70 37z"/>
<path d="M2640 5850 c-8 -5 -24 -10 -35 -10 -13 0 -24 -10 -32 -29 -9 -25 -8
-29 5 -24 11 5 13 3 7 -7 -11 -18 13 -3 65 43 33 28 39 37 24 37 -10 0 -26 -5
-34 -10z"/>
<path d="M2689 5843 c-13 -9 -35 -29 -49 -46 l-24 -30 29 9 c17 4 50 9 75 10
88 3 90 3 90 23 0 10 -8 21 -17 24 -10 3 -32 10 -49 15 -23 7 -37 6 -55 -5z"/>
<path d="M4575 5775 c28 -12 54 -20 59 -17 5 3 14 -1 20 -9 10 -14 97 -59 112
-59 4 0 33 -14 66 -30 33 -17 65 -29 70 -28 16 6 -55 76 -102 101 -51 28 -198
67 -244 66 -29 -1 -28 -2 19 -24z"/>
<path d="M3790 5786 c0 -2 7 -7 16 -10 8 -3 12 -2 9 4 -6 10 -25 14 -25 6z"/>
<path d="M5143 5775 c0 -8 4 -12 8 -10 8 6 24 -13 32 -40 6 -18 5 -17 -9 3
-22 30 -31 28 -26 -8 2 -16 9 -30 14 -30 5 0 6 -6 2 -12 -4 -7 2 -4 14 6 26
23 28 57 5 78 -29 24 -40 28 -40 13z"/>
<path d="M5210 5731 c0 -14 5 -18 20 -14 16 4 17 7 5 19 -18 19 -25 18 -25 -5z"/>
<path d="M4703 5647 c-2 -29 2 -54 9 -58 6 -4 2 -9 -11 -14 -11 -3 -21 -12
-21 -19 0 -30 23 -76 42 -82 11 -3 17 -8 14 -11 -3 -3 5 -13 16 -23 12 -10 23
-28 25 -41 1 -13 5 -40 9 -59 4 -25 3 -31 -5 -21 -8 12 -11 10 -16 -10 -3 -13
-21 -34 -40 -47 -19 -12 -35 -26 -35 -30 0 -4 -31 -7 -70 -6 -55 0 -70 -3 -70
-14 0 -12 3 -12 15 -2 18 15 19 7 3 -20 -10 -15 -10 -32 0 -76 11 -53 9 -65
-25 -193 -20 -75 -36 -149 -35 -164 1 -17 -3 -25 -9 -21 -6 3 0 -14 12 -37 12
-24 24 -39 26 -32 2 6 -3 22 -11 35 -14 21 -13 25 4 48 10 14 29 25 44 25 14
1 42 16 62 34 25 23 60 40 122 58 48 13 95 27 105 30 20 6 23 22 5 24 -7 1 14
5 47 10 33 5 65 16 71 24 6 8 16 15 22 15 9 0 22 22 22 39 0 3 -31 5 -69 3
-51 -3 -75 0 -97 13 -16 9 -20 13 -9 9 30 -11 112 -17 140 -10 14 4 25 14 26
24 0 16 1 16 7 0 6 -15 11 -14 57 5 73 32 126 67 119 79 -5 7 -2 8 7 4 8 -4 7
-1 -2 5 -15 11 -13 15 14 33 17 12 36 37 44 56 13 34 13 34 9 5 -4 -29 -2 -31
27 -33 30 -2 68 -32 80 -64 6 -18 107 80 104 101 -2 9 -8 26 -15 38 -7 12 -11
26 -10 30 5 17 -14 83 -23 83 -6 0 -7 4 -4 10 6 10 -29 99 -43 110 -4 3 -20
24 -36 48 -34 50 -58 66 -87 57 -13 -4 -19 -2 -17 7 2 7 -8 14 -22 16 l-25 3
22 -18 c25 -20 82 -104 101 -146 19 -44 14 -87 -18 -152 -34 -70 -38 -62 -10
20 24 71 25 117 3 153 -44 72 -59 92 -70 92 -15 0 -27 -36 -17 -52 5 -10 4
-10 -6 -1 -11 10 -11 18 0 43 11 27 11 34 -3 47 -13 13 -19 14 -31 4 -9 -7
-22 -11 -31 -8 -8 4 -17 2 -20 -2 -2 -5 -24 -12 -47 -15 -72 -11 -79 -22 -28
-46 25 -11 38 -18 29 -16 -68 19 -99 30 -99 36 0 4 -8 10 -18 12 -15 4 -17 0
-14 -23 4 -26 8 -29 46 -31 l41 -1 -38 -4 -37 -4 6 -42 c4 -23 11 -50 15 -59
24 -45 -2 -188 -26 -148 -5 9 -4 11 3 6 21 -13 24 43 8 142 -11 64 -22 101
-33 110 -9 6 -12 12 -6 12 19 0 1 51 -21 60 -12 4 -46 20 -76 35 -30 15 -71
32 -90 39 l-35 13 -2 -50z m438 -80 c-10 -9 -11 -8 -5 6 3 10 9 15 12 12 3 -3
0 -11 -7 -18z m-16 -26 c-3 -6 3 -15 15 -21 18 -10 107 -130 96 -130 -3 0 -19
21 -37 47 -51 74 -64 83 -116 84 l-48 1 38 8 c20 4 40 10 44 13 10 10 15 8 8
-2z m271 -88 c8 -17 14 -37 14 -45 0 -7 11 -33 25 -57 l25 -43 -23 15 c-12 8
-32 17 -42 20 -18 4 -18 5 2 6 20 1 21 4 11 34 -5 17 -16 46 -23 62 -7 17 -16
44 -19 60 -6 29 -6 29 5 5 7 -14 18 -39 25 -57z m-488 -18 c-3 -3 -9 2 -12 12
-6 14 -5 15 5 6 7 -7 10 -15 7 -18z m475 -72 c-7 -2 -21 -2 -30 0 -10 3 -4 5
12 5 17 0 24 -2 18 -5z m-586 -140 c-3 -10 -5 -2 -5 17 0 19 2 27 5 18 2 -10
2 -26 0 -35z m153 13 c0 -2 -8 -10 -17 -17 -16 -13 -17 -12 -4 4 13 16 21 21
21 13z m283 -41 c-3 -9 -8 -14 -10 -11 -3 3 -2 9 2 15 9 16 15 13 8 -4z m-462
-52 c-12 -20 -14 -14 -5 12 4 9 9 14 11 11 3 -2 0 -13 -6 -23z m70 -38 c-17
-20 -31 -42 -31 -49 0 -8 -7 -19 -15 -26 -12 -10 -15 -10 -15 2 0 14 76 108
87 108 3 0 -9 -16 -26 -35z m-11 -109 c0 -2 -8 -10 -17 -17 -16 -13 -17 -12
-4 4 13 16 21 21 21 13z"/>
<path d="M5205 5692 c-5 -4 -11 -16 -13 -27 -2 -15 0 -16 6 -7 8 11 16 10 48
-5 22 -11 47 -18 57 -15 30 6 19 29 -23 46 -44 18 -60 19 -75 8z m81 -43 c4
-8 1 -8 -14 0 -12 6 -24 16 -28 22 -4 8 -1 8 14 0 12 -6 24 -16 28 -22z"/>
<path d="M5320 5626 c0 -2 7 -9 15 -16 13 -11 14 -10 9 4 -5 14 -24 23 -24 12z"/>
<path d="M2317 5548 c-14 -18 -44 -64 -66 -103 -38 -63 -39 -67 -11 -35 17 19
43 53 57 75 14 22 34 50 45 61 12 13 15 24 9 28 -5 4 -21 -8 -34 -26z"/>
<path d="M3530 5505 c-92 -21 -171 -53 -197 -80 -14 -13 -60 -38 -103 -54 -52
-20 -91 -43 -118 -70 -22 -22 -37 -42 -34 -45 3 -3 0 -6 -6 -6 -9 0 -9 -6 0
-25 6 -14 17 -24 24 -21 9 4 12 -5 10 -30 -1 -23 4 -40 16 -51 25 -22 23 -32
-6 -29 -28 3 -37 -1 -52 -29 -6 -11 -17 -20 -24 -20 -6 0 -21 -16 -31 -35
l-20 -35 5 31 5 31 -37 -12 c-28 -10 -41 -10 -52 -2 -13 10 -13 10 -3 -4 7 -9
11 -18 8 -21 -3 -2 11 -21 29 -42 19 -20 37 -42 40 -49 3 -7 4 6 2 28 -3 22
-2 31 1 21 4 -15 7 -16 14 -5 6 9 7 0 3 -26 -5 -33 -2 -44 15 -59 11 -10 29
-16 40 -13 15 3 20 -2 25 -24 3 -16 10 -29 15 -29 6 0 7 7 4 17 -4 11 -3 14 5
9 8 -5 12 0 12 14 0 12 4 19 9 15 5 -3 13 5 17 17 4 13 17 39 30 59 15 24 19
40 13 50 -5 8 -9 19 -9 24 0 6 17 -17 38 -50 60 -94 68 -96 64 -16 -3 60 0 73
32 135 41 79 40 76 21 76 -14 0 -14 8 1 93 9 50 -3 48 -68 -14 -29 -28 -47
-48 -41 -44 7 3 22 1 33 -5 24 -13 27 -58 4 -67 -22 -8 -67 14 -59 30 4 6 -5
-1 -19 -18 -28 -33 -34 -82 -11 -91 12 -5 12 -9 0 -28 -8 -13 -12 -26 -8 -31
5 -4 3 -5 -4 -2 -6 4 -10 19 -8 33 2 22 0 24 -11 12 -7 -7 -14 -37 -15 -66 -1
-29 -5 -48 -9 -42 -14 22 19 187 43 212 44 47 93 148 65 133 -7 -4 -2 3 12 14
14 11 29 21 33 21 5 0 6 4 3 8 -3 5 28 26 69 48 41 21 75 42 75 46 0 19 36 39
69 37 20 -1 54 1 76 5 36 5 37 5 13 -5 -29 -11 -34 -20 -20 -33 4 -4 8 -12 8
-17 1 -5 2 -13 3 -19 0 -5 16 -10 35 -10 18 0 39 -7 46 -15 7 -8 17 -12 22 -9
14 9 99 -17 92 -27 -8 -13 130 -11 143 2 14 14 -2 34 -33 42 -10 2 2 5 27 6
43 1 48 4 74 43 17 26 30 37 33 29 2 -7 -5 -26 -16 -41 -18 -23 -19 -29 -7
-34 20 -7 51 6 104 44 27 20 40 35 34 41 -5 5 -38 12 -74 15 -59 6 -69 4 -121
-25 -67 -37 -75 -38 -169 -7 -51 17 -67 25 -53 29 10 3 -6 4 -36 2 l-55 -4 45
10 c57 14 63 20 44 47 -12 18 -24 22 -67 21 -29 -1 -77 -7 -107 -14z m147 -81
c-3 -3 -12 -4 -19 -1 -8 3 -5 6 6 6 11 1 17 -2 13 -5z m-90 -20 c-3 -3 -12 -4
-19 -1 -8 3 -5 6 6 6 11 1 17 -2 13 -5z m-449 -234 c-22 -30 -35 -41 -22 -17
9 16 36 47 41 47 2 0 -6 -13 -19 -30z m-109 -169 c-6 -18 -13 -30 -15 -28 -2
2 1 18 7 36 6 18 13 30 15 28 2 -2 -1 -18 -7 -36z"/>
<path d="M3973 5506 c-7 -8 -13 -19 -13 -24 0 -8 222 -45 267 -45 14 1 21 -4
17 -11 -3 -6 2 -2 10 8 15 19 13 21 -46 43 -35 13 -73 22 -85 20 -12 -2 -24 0
-25 5 -2 5 -28 11 -58 14 -41 4 -58 1 -67 -10z"/>
<path d="M4275 5440 c-3 -5 0 -10 7 -10 9 0 9 -3 -2 -10 -12 -7 -7 -12 22 -25
21 -8 44 -15 53 -15 8 0 25 -9 38 -20 37 -34 50 -45 86 -70 l33 -23 -12 22
c-23 44 -89 100 -129 111 -23 6 -41 13 -41 16 0 3 10 3 23 -1 20 -5 20 -4 -3
8 -39 22 -68 29 -75 17z"/>
<path d="M4280 5380 c-12 -8 -10 -10 8 -10 13 0 20 4 17 10 -7 12 -6 12 -25 0z"/>
<path d="M3360 5325 c-7 -8 -17 -15 -23 -15 -5 0 -29 -18 -53 -40 -24 -22 -40
-40 -35 -40 4 0 16 10 27 21 10 12 40 31 66 43 34 15 45 25 39 34 -6 10 -10
10 -21 -3z"/>
<path d="M3598 5333 c6 -2 18 -2 25 0 6 3 1 5 -13 5 -14 0 -19 -2 -12 -5z"/>
<path d="M4402 5313 c-9 -17 -4 -21 39 -36 27 -10 49 -22 49 -27 0 -14 -9 -12
-26 5 -18 17 -77 30 -101 21 -15 -6 -15 -8 -3 -16 10 -7 11 -10 2 -10 -17 0
-62 -105 -62 -146 0 -18 7 -40 16 -48 8 -9 12 -16 8 -16 -5 0 -19 12 -32 28
-13 15 -21 20 -19 11 3 -9 -1 -34 -8 -55 -11 -33 -11 -41 0 -53 11 -11 17 -12
29 -2 12 10 14 9 9 -9 -3 -11 -2 -20 3 -18 5 1 23 -6 41 -15 39 -21 72 -22 87
-2 6 8 22 16 35 18 13 2 30 14 37 28 7 13 13 20 13 14 0 -5 -6 -21 -14 -35
-17 -30 -18 -40 -6 -40 14 0 33 67 26 92 -4 16 -3 19 3 10 6 -9 9 10 8 51 0
36 -4 63 -8 61 -5 -3 -8 0 -8 5 0 15 -47 14 -53 -1 -3 -8 -6 -6 -6 5 -1 9 6
17 15 17 8 0 13 4 9 9 -3 5 -1 13 5 16 8 5 7 11 -1 21 -10 12 -8 13 7 8 16 -6
17 -5 7 7 -15 16 -17 33 -3 24 30 -18 -18 38 -67 79 -21 17 -22 17 -31 -1z
m26 -220 c-10 -2 -28 -2 -40 0 -13 2 -5 4 17 4 22 1 32 -1 23 -4z m-98 -82 c0
-6 -4 -13 -10 -16 -5 -3 -10 1 -10 9 0 9 5 16 10 16 6 0 10 -4 10 -9z"/>
<path d="M3940 5305 c-10 -12 -10 -15 4 -15 9 0 16 7 16 15 0 8 -2 15 -4 15
-2 0 -9 -7 -16 -15z"/>
<path d="M2203 5295 c-9 -10 -9 -16 -2 -20 14 -9 22 0 17 18 -2 13 -5 13 -15
2z"/>
<path d="M3978 5293 c7 -3 16 -2 19 1 4 3 -2 6 -13 5 -11 0 -14 -3 -6 -6z"/>
<path d="M4527 5269 c4 -13 8 -18 11 -10 2 7 -1 18 -6 23 -8 8 -9 4 -5 -13z"/>
<path d="M2152 5228 c-12 -29 -24 -82 -27 -118 l-6 -65 16 40 c9 22 20 52 25
67 5 15 16 38 24 50 19 27 20 39 3 62 -11 16 -15 12 -35 -36z"/>
<path d="M3809 5258 c-11 -39 18 -49 47 -17 17 18 16 19 -14 19 -18 0 -32 -1
-33 -2z"/>
<path d="M3867 5232 c-23 -25 -24 -50 -2 -32 12 10 21 10 41 1 21 -9 25 -17
21 -38 -3 -15 1 -32 7 -39 15 -14 30 6 51 66 l13 38 -43 11 c-59 15 -69 14
-88 -7z"/>
<path d="M5445 5165 c-53 -49 -57 -55 -35 -55 30 0 90 35 91 52 0 7 2 23 5 36
2 12 2 22 1 22 -2 0 -30 -25 -62 -55z"/>
<path d="M3810 5142 c0 -16 9 -37 20 -47 18 -17 19 -16 26 9 4 19 1 33 -11 46
-25 28 -35 25 -35 -8z"/>
<path d="M4500 5159 c0 -5 5 -7 10 -4 6 3 10 8 10 11 0 2 -4 4 -10 4 -5 0 -10
-5 -10 -11z"/>
<path d="M3870 5099 c0 -22 5 -30 26 -35 16 -4 31 -2 39 7 12 12 8 17 -25 36
l-40 21 0 -29z"/>
<path d="M5171 5084 c-24 -18 -61 -39 -83 -46 -30 -9 -43 -19 -54 -46 -8 -19
-14 -36 -14 -38 0 -6 81 36 97 50 7 6 19 17 27 23 8 7 19 19 23 27 6 12 17 13
45 7 20 -5 39 -7 42 -4 5 5 -26 63 -34 62 -3 0 -25 -16 -49 -35z"/>
<path d="M2086 5089 c-20 -91 -26 -164 -25 -318 1 -97 4 -201 8 -231 6 -52 7
-48 14 53 4 59 4 160 0 225 -4 74 -1 149 6 201 7 46 10 85 7 88 -3 3 -7 -5
-10 -18z"/>
<path d="M5483 5087 c-4 -7 -21 -21 -38 -31 -16 -11 -35 -27 -42 -35 -11 -14
-12 -14 -13 -1 0 8 10 21 22 29 22 14 22 14 -16 28 -34 11 -42 11 -56 -2 -9
-8 -32 -18 -50 -22 l-34 -6 34 -13 c19 -7 29 -13 22 -13 -20 -1 -106 21 -115
29 -5 4 -24 -8 -43 -28 -18 -19 -58 -47 -88 -61 -39 -19 -64 -40 -89 -76 -19
-27 -41 -49 -47 -47 -7 2 -10 -3 -7 -12 4 -10 -5 -23 -23 -36 -17 -12 -30 -19
-30 -15 0 3 -10 1 -22 -5 -13 -7 3 12 35 40 49 44 87 94 87 114 0 3 -19 -3
-42 -13 -24 -10 -81 -31 -128 -46 -94 -31 -161 -73 -179 -112 -18 -38 -5 -40
32 -5 18 18 37 32 42 32 5 0 -1 -7 -13 -16 -13 -9 -37 -35 -54 -58 -17 -22
-28 -33 -25 -23 6 15 4 16 -14 6 -34 -18 -60 -47 -48 -55 6 -4 14 -3 18 2 3 5
13 10 21 12 8 1 4 -6 -9 -16 -16 -13 -22 -25 -18 -36 4 -10 2 -26 -3 -37 -7
-11 -7 -19 -1 -19 5 0 12 6 14 13 3 7 6 5 6 -5 1 -22 1 -22 51 -2 l41 17 -29
17 c-17 10 -33 24 -38 31 -4 7 6 3 23 -9 37 -26 59 -28 67 -6 10 27 7 32 -16
26 -20 -5 -21 -4 -10 11 17 20 76 40 99 34 11 -3 5 -5 -12 -6 -24 -1 -27 -3
-15 -12 12 -9 11 -10 -6 -6 -11 2 -21 -1 -21 -7 0 -6 -3 -24 -7 -40 l-7 -28
53 7 c29 3 64 10 78 15 52 18 232 52 250 47 16 -4 18 -2 11 11 -8 15 -3 17 32
18 23 0 76 14 117 31 41 18 89 37 107 43 17 7 46 25 64 41 30 27 32 31 27 81
l-6 53 14 -44 c11 -36 11 -47 0 -70 -15 -28 -103 -88 -120 -83 -6 2 -7 0 -3
-5 14 -13 258 -30 272 -18 12 10 20 37 31 116 5 30 0 42 -30 78 -20 24 -33 47
-30 52 3 5 0 9 -5 9 -6 0 -11 19 -11 42 0 57 -6 45 -13 -27 -4 -41 -3 -54 3
-40 l10 20 -3 -20 c-2 -11 -9 -19 -16 -17 -8 2 -11 -3 -8 -12 6 -15 -49 -64
-59 -53 -3 3 4 10 15 16 27 15 51 98 51 178 0 48 -3 63 -15 63 -7 0 -18 -6
-22 -13z m-65 -152 c0 -16 -2 -15 -8 5 -4 14 -8 34 -8 45 0 16 2 15 8 -5 4
-14 8 -34 8 -45z m-232 26 c-16 -17 -15 -20 11 -52 15 -19 31 -36 34 -39 8 -6
22 -50 16 -50 -3 0 -17 20 -31 45 -15 25 -33 45 -41 45 -8 0 -15 7 -15 16 0
22 19 54 32 54 6 0 4 -8 -6 -19z m-125 -143 c25 -28 24 -43 -3 -68 -26 -24
-45 -25 -70 -3 -22 20 -23 51 -1 75 22 24 51 23 74 -4z"/>
<path d="M3046 5073 c-6 -14 -5 -15 5 -6 7 7 10 15 7 18 -3 3 -9 -2 -12 -12z"/>
<path d="M3554 5061 c4 -5 -3 -7 -14 -4 -23 6 -74 -23 -65 -37 3 -5 -1 -25 -9
-44 -12 -28 -22 -36 -50 -42 -44 -8 -90 9 -104 39 -9 20 -10 19 -17 -15 -7
-38 1 -115 12 -104 3 3 14 -6 25 -19 11 -14 23 -23 26 -21 4 2 12 -7 19 -20 6
-13 7 -22 3 -19 -4 3 -6 -4 -3 -16 4 -16 8 -17 14 -7 14 21 10 0 -3 -23 -19
-29 20 -61 64 -52 22 4 29 3 24 -5 -5 -9 8 -12 43 -12 38 0 51 4 51 15 0 8 18
42 40 76 42 65 47 69 30 23 -9 -23 -8 -25 3 -15 11 9 21 6 43 -11 16 -12 32
-27 36 -33 14 -19 8 -62 -12 -87 -14 -19 -16 -28 -8 -36 8 -8 8 -12 1 -12 -6
0 -16 7 -23 15 -7 9 -21 13 -30 10 -11 -3 -30 5 -49 20 l-31 27 -11 -26 c-18
-38 1 -53 84 -65 40 -7 85 -14 100 -16 18 -3 27 0 26 8 -5 40 2 88 14 85 29
-5 57 14 57 38 0 18 -4 23 -12 18 -8 -5 -8 -1 1 10 13 15 13 19 0 26 -12 8
-11 11 3 22 10 7 14 18 10 23 -9 13 -58 35 -79 35 -8 0 -29 11 -45 25 -16 14
-34 23 -39 19 -5 -3 -9 0 -9 5 0 6 -5 11 -11 11 -5 0 -8 -4 -5 -8 3 -5 -1 -9
-9 -9 -12 0 -12 3 -2 15 6 8 12 25 12 36 1 12 4 27 8 34 5 6 5 12 1 12 -4 0 1
10 12 22 l19 22 -25 -17 c-37 -25 -49 -20 -17 7 24 21 26 26 13 39 -8 8 -33
17 -55 21 -23 3 -41 11 -41 16 0 6 -5 10 -11 10 -5 0 -8 -4 -5 -9z m-64 -115
c0 -2 -12 -11 -27 -20 l-28 -17 24 20 c23 21 31 25 31 17z m257 -372 c-3 -3
-12 -4 -19 -1 -8 3 -5 6 6 6 11 1 17 -2 13 -5z"/>
<path d="M4541 5055 c1 -19 18 -51 18 -35 0 8 -4 22 -9 30 -5 8 -9 11 -9 5z"/>
<path d="M3913 5033 c9 -2 25 -2 35 0 9 3 1 5 -18 5 -19 0 -27 -2 -17 -5z"/>
<path d="M3930 4995 c-5 -6 -5 -17 0 -25 5 -8 7 -17 4 -22 -7 -11 55 -25 89
-20 l29 4 -33 34 c-18 18 -36 31 -41 28 -4 -3 -8 -1 -8 4 0 12 -29 11 -40 -3z"/>
<path d="M4531 4944 c-7 -25 -10 -48 -8 -51 3 -2 10 17 16 43 7 25 10 48 8 51
-3 2 -10 -17 -16 -43z"/>
<path d="M3197 4953 c-10 -10 -8 -76 3 -93 7 -12 13 -13 28 -3 15 9 22 9 32 0
7 -7 3 6 -10 28 -38 64 -46 75 -53 68z"/>
<path d="M4108 4943 c7 -3 16 -2 19 1 4 3 -2 6 -13 5 -11 0 -14 -3 -6 -6z"/>
<path d="M4070 4930 c-13 -8 -12 -10 3 -10 9 0 17 5 17 10 0 12 -1 12 -20 0z"/>
<path d="M2970 4866 c0 -9 5 -16 10 -16 6 0 10 4 10 9 0 6 -4 13 -10 16 -5 3
-10 -1 -10 -9z"/>
<path d="M2430 4831 c0 -6 4 -13 10 -16 6 -3 7 1 4 9 -7 18 -14 21 -14 7z"/>
<path d="M3035 4810 c-3 -6 -10 -8 -14 -6 -11 7 5 -92 22 -139 l15 -40 0 77
c0 43 3 82 6 87 3 5 -1 14 -8 20 -10 8 -16 9 -21 1z"/>
<path d="M4889 4799 l-24 -20 28 17 c15 9 27 18 27 20 0 8 -8 4 -31 -17z"/>
<path d="M3090 4726 c0 -36 5 -68 10 -71 6 -4 10 18 10 59 0 36 -4 68 -10 71
-6 4 -10 -18 -10 -59z"/>
<path d="M4170 4671 c0 -5 8 -19 18 -31 19 -24 42 -20 42 6 0 8 -4 12 -10 9
-5 -3 -10 1 -10 9 0 9 -9 16 -20 16 -11 0 -20 -4 -20 -9z"/>
<path d="M3340 4650 c0 -5 5 -10 11 -10 5 0 7 5 4 10 -3 6 -8 10 -11 10 -2 0
-4 -4 -4 -10z"/>
<path d="M5445 4645 c63 -18 67 -18 90 -1 16 12 9 14 -61 14 l-79 1 50 -14z"/>
<path d="M3290 4640 c-13 -8 -12 -10 3 -10 9 0 17 5 17 10 0 12 -1 12 -20 0z"/>
<path d="M3494 4639 c-8 -13 15 -30 36 -26 8 1 16 10 18 20 3 12 -3 17 -22 17
-14 0 -28 -5 -32 -11z"/>
<path d="M3125 4630 c-6 -10 79 -70 99 -70 6 0 6 -4 -1 -8 -16 -10 36 -61 87
-87 19 -10 32 -14 29 -11 -4 4 -3 22 1 40 7 30 5 33 -14 30 -14 -3 -11 1 9 10
17 9 25 15 18 16 -7 0 -10 7 -7 15 7 18 -31 22 -41 4 -5 -7 -15 -4 -29 9 -11
11 -39 28 -61 38 -22 10 -44 20 -49 22 -5 3 -5 -2 -1 -9 6 -11 5 -12 -6 -1
-16 15 -26 15 -34 2z"/>
<path d="M4166 4632 c-3 -6 1 -15 8 -21 8 -7 17 -8 20 -3 3 6 -1 15 -8 21 -8
7 -17 8 -20 3z"/>
<path d="M4285 4630 c5 -8 3 -11 -6 -8 -15 5 -83 -25 -93 -41 -3 -5 -52 -24
-108 -42 l-103 -34 46 -3 c51 -3 164 35 164 56 0 17 44 45 60 38 8 -3 15 -1
15 4 0 6 6 10 14 10 20 0 29 17 15 26 -8 5 -9 3 -4 -6z"/>
<path d="M3323 4618 c-30 -10 -47 -38 -22 -38 5 0 8 4 4 9 -3 6 7 6 27 0 40
-11 38 -11 38 2 0 5 -6 7 -12 3 -10 -6 -10 -4 0 7 26 28 17 33 -35 17z"/>
<path d="M3780 4610 c0 -11 6 -20 14 -20 24 0 26 15 5 28 -16 11 -19 9 -19 -8z"/>
<path d="M4478 4617 c-9 -6 -8 -7 5 -3 20 6 21 2 7 -25 -15 -27 -4 -42 21 -29
10 6 19 15 19 21 0 6 -5 7 -10 4 -7 -4 -9 2 -5 17 7 26 -12 34 -37 15z"/>
<path d="M4308 4599 c-25 -19 -41 -48 -19 -35 5 3 11 -1 15 -9 3 -9 0 -15 -8
-15 -8 0 -16 6 -19 14 -5 12 -11 12 -31 3 -22 -10 -23 -14 -10 -28 8 -8 11
-20 7 -25 -5 -5 2 -1 13 9 21 18 23 17 49 -7 16 -15 23 -26 18 -26 -5 0 -18 9
-28 20 -19 21 -43 17 -26 -4 7 -8 4 -12 -10 -14 -10 -1 -28 -3 -38 -4 -11 -1
-18 -5 -15 -9 4 -7 -35 -24 -79 -35 -17 -4 -32 -16 -37 -30 -11 -27 -58 -54
-95 -54 -30 0 -31 -3 -4 -39 12 -17 26 -58 32 -99 l11 -71 81 -4 80 -3 -86 -2
-87 -2 -4 -37 c-3 -21 -3 -44 -1 -50 11 -29 109 -24 128 7 3 5 11 8 16 4 5 -3
7 -10 4 -15 -3 -5 1 -6 10 -2 14 5 14 8 3 15 -9 7 -3 8 17 4 18 -4 25 -3 17 2
-9 6 -10 15 -3 33 9 21 10 22 11 4 1 -19 1 -19 14 -2 8 10 27 17 48 17 19 0
43 7 54 15 10 8 36 19 57 25 46 13 77 38 77 62 0 21 -12 23 -43 7 -22 -10 -22
-10 -2 6 11 9 19 21 17 26 -1 6 2 8 7 5 5 -3 14 1 20 8 8 10 9 16 1 21 -5 3
-10 14 -10 23 0 13 2 13 14 -3 13 -18 14 -18 26 6 15 27 30 99 21 96 -4 -1
-17 8 -29 19 -14 13 -32 20 -45 18 -21 -4 -21 -4 -2 5 11 5 27 5 37 0 9 -5 22
-9 29 -9 16 0 -18 38 -40 43 -9 2 -6 3 7 2 12 -1 22 3 22 9 0 6 -12 13 -27 14
-14 1 -42 14 -61 29 -27 20 -34 22 -29 9 4 -9 3 -15 -2 -12 -5 3 -12 -1 -15
-10 -4 -9 -9 -14 -13 -11 -3 4 -11 3 -17 -3 -8 -6 -12 -3 -12 11 0 13 5 17 17
14 10 -3 20 -1 23 4 8 13 -14 61 -28 61 -6 0 -4 5 4 10 8 5 11 10 5 10 -5 -1
-22 -10 -37 -21z m98 -116 c-6 -6 -36 9 -36 18 0 5 9 4 20 -3 10 -7 18 -14 16
-15z m-214 -218 c25 -50 20 -45 -26 24 -49 73 -53 81 -21 46 15 -16 36 -48 47
-70z m265 73 c-3 -8 -6 -5 -6 6 -1 11 2 17 5 13 3 -3 4 -12 1 -19z m8 -66 c-5
-5 -83 36 -89 47 -3 5 16 -3 43 -18 27 -14 48 -27 46 -29z m-325 -102 l25 -8
-25 0 c-14 0 -34 3 -45 8 l-20 9 20 -1 c11 0 31 -4 45 -8z m201 -13 c-10 -9
-11 -8 -5 6 3 10 9 15 12 12 3 -3 0 -11 -7 -18z"/>
<path d="M4442 4600 c0 -14 2 -19 5 -12 2 6 2 18 0 25 -3 6 -5 1 -5 -13z"/>
<path d="M3380 4596 c0 -7 11 -16 25 -19 25 -4 25 -4 9 14 -20 22 -34 24 -34
5z"/>
<path d="M3106 4585 c-3 -8 -1 -15 4 -15 6 0 10 7 10 15 0 8 -2 15 -4 15 -2 0
-6 -7 -10 -15z"/>
<path d="M4113 4580 c-11 -17 -11 -18 7 -12 20 7 28 24 13 29 -4 2 -14 -6 -20
-17z"/>
<path d="M3888 4583 c-19 -5 -22 -12 -12 -37 5 -12 20 -16 60 -16 30 0 54 4
54 8 0 4 -20 14 -45 21 -25 7 -42 17 -39 22 3 5 4 8 2 8 -2 -1 -11 -3 -20 -6z"/>
<path d="M3840 4550 c0 -11 6 -20 14 -20 9 0 12 7 9 20 -3 11 -9 20 -14 20 -5
0 -9 -9 -9 -20z"/>
<path d="M3780 4550 c0 -5 11 -10 25 -10 14 0 25 5 25 10 0 6 -11 10 -25 10
-14 0 -25 -4 -25 -10z"/>
<path d="M2580 4529 c0 -5 5 -7 10 -4 6 3 10 8 10 11 0 2 -4 4 -10 4 -5 0 -10
-5 -10 -11z"/>
<path d="M3550 4515 c13 -14 28 -25 34 -25 6 0 48 -15 93 -34 53 -21 84 -29
87 -22 2 6 5 3 5 -6 1 -15 47 -48 66 -48 3 0 6 26 7 58 l2 57 3 -52 c5 -70 23
-68 23 1 l0 55 -42 5 c-24 3 -93 12 -155 21 -153 21 -152 21 -123 -10z"/>
<path d="M4109 4500 c-18 -11 -202 -16 -218 -6 -8 5 -11 -12 -11 -55 l0 -62
47 6 c32 3 51 12 63 27 10 13 19 18 21 12 5 -14 69 -26 69 -12 0 5 -12 12 -27
16 -16 3 -36 8 -45 12 -15 6 -15 8 6 18 20 9 23 9 19 -2 -9 -24 36 -16 73 12
44 34 47 60 3 34z"/>
<path d="M4510 4500 c0 -5 4 -10 9 -10 6 0 13 5 16 10 3 6 -1 10 -9 10 -9 0
-16 -4 -16 -10z"/>
<path d="M4121 4456 c-9 -11 -6 -12 14 -8 14 2 25 8 25 13 0 14 -26 11 -39 -5z"/>
<path d="M3570 4444 l25 -15 -25 6 -25 6 24 -20 c25 -23 21 -27 -10 -11 -15 8
-19 8 -17 -2 2 -7 8 -16 13 -20 6 -4 1 -8 -11 -8 -35 0 -35 -12 -1 -44 18 -17
32 -30 29 -29 -6 2 -42 -31 -42 -40 0 -4 4 -5 10 -2 5 3 7 0 4 -9 -3 -9 1 -16
13 -18 10 -2 18 -12 18 -23 0 -13 6 -20 18 -19 9 1 17 -2 17 -6 0 -10 71 -27
140 -35 39 -4 51 -2 40 5 -8 5 -23 10 -33 10 -11 0 -17 5 -14 13 5 13 12 13
77 -3 24 -6 62 -8 85 -4 32 5 38 4 28 -7 -7 -7 -34 -13 -60 -13 l-48 -1 25
-24 c14 -13 17 -18 7 -11 -9 7 -20 10 -24 6 -10 -10 26 -44 60 -56 l31 -10
-22 20 c-12 12 -22 24 -22 27 0 4 15 -8 34 -26 38 -36 48 -35 72 11 13 25 14
32 2 39 -9 6 -9 9 -1 9 19 0 14 89 -9 142 -24 56 -43 75 -60 61 -7 -6 -39 -13
-70 -16 -46 -4 -58 -3 -58 9 0 8 5 14 11 14 5 0 7 5 4 11 -4 6 -13 8 -21 5 -8
-3 -14 -2 -14 2 0 4 -16 16 -35 26 -19 11 -35 23 -35 27 0 10 -100 39 -132 39
l-23 -1 25 -15z m90 -99 c7 -9 8 -15 2 -15 -5 0 -12 7 -16 15 -3 8 -4 15 -2
15 2 0 9 -7 16 -15z m58 -100 c-3 -3 -9 2 -12 12 -6 14 -5 15 5 6 7 -7 10 -15
7 -18z m-83 -43 c-1 -1 -9 0 -17 3 -10 4 -14 14 -11 26 5 19 6 19 18 -3 6 -13
11 -24 10 -26z m305 -62 c-20 -5 -39 -5 -44 1 -6 5 7 9 35 8 l44 -1 -35 -8z"/>
<path d="M3270 4412 c0 -14 39 -46 47 -39 3 4 -2 16 -12 27 -19 21 -35 26 -35
12z"/>
<path d="M4751 4386 c-6 -16 -10 -31 -7 -33 7 -8 28 37 23 50 -3 7 -10 -1 -16
-17z"/>
<path d="M2212 4332 c-17 -56 -15 -127 3 -142 12 -10 15 -9 15 6 0 15 2 16 9
5 12 -19 3 -41 -14 -35 -10 4 -12 0 -7 -18 10 -33 30 -58 79 -96 l42 -32 -14
33 c-7 18 -15 55 -17 82 -2 28 -7 55 -13 61 -39 44 -48 63 -59 116 l-12 60
-12 -40z"/>
<path d="M4660 4351 c0 -19 3 -20 20 -11 11 6 20 16 19 23 0 9 -2 8 -6 -1 -4
-10 -8 -10 -19 -1 -11 9 -14 7 -14 -10z"/>
<path d="M3497 4336 c-4 -10 -1 -13 8 -9 8 3 12 9 9 14 -7 12 -11 11 -17 -5z"/>
<path d="M4681 4304 c0 -11 3 -14 6 -6 3 7 2 16 -1 19 -3 4 -6 -2 -5 -13z"/>
<path d="M4702 4288 c-15 -15 -16 -38 -2 -38 12 0 23 25 18 40 -2 7 -7 7 -16
-2z"/>
<path d="M2988 4253 c6 -2 18 -2 25 0 6 3 1 5 -13 5 -14 0 -19 -2 -12 -5z"/>
<path d="M3010 4244 c-19 -7 -49 -13 -65 -13 -28 -1 -32 -5 -43 -46 -17 -66
-16 -73 21 -85 l32 -10 -37 4 c-33 4 -38 2 -47 -26 -8 -23 -7 -33 3 -44 12
-11 18 -8 40 18 15 19 26 26 26 17 1 -12 2 -12 13 1 14 17 67 26 67 11 0 -5 9
-7 20 -4 23 6 27 33 5 33 -8 0 -15 -5 -15 -11 0 -5 -5 -7 -11 -3 -25 15 14 28
80 26 62 -3 70 -1 76 18 4 12 11 18 18 14 8 -5 8 -2 0 7 -11 11 -22 9 -65 -9
-28 -12 -54 -20 -56 -17 -3 3 0 15 6 27 l12 23 -6 -23 -5 -22 38 17 c61 28 66
34 43 50 -15 11 -18 18 -10 32 5 10 6 21 3 25 -11 10 -106 4 -143 -10z"/>
<path d="M3205 4240 c4 -6 11 -8 16 -5 14 9 11 15 -7 15 -8 0 -12 -5 -9 -10z"/>
<path d="M3610 4150 c0 -13 30 -13 50 0 11 7 7 10 -17 10 -18 0 -33 -4 -33
-10z"/>
<path d="M3776 4125 c25 -19 40 -19 48 0 4 12 -3 15 -31 15 -35 0 -36 -1 -17
-15z"/>
<path d="M3628 4122 c-10 -2 -18 -7 -18 -12 0 -4 -7 -11 -16 -14 -15 -6 -15
-4 -3 11 12 17 12 17 -7 0 -16 -15 -17 -19 -4 -27 8 -5 21 -8 28 -5 6 2 12 0
12 -6 0 -13 44 -29 99 -34 45 -5 94 -15 138 -29 22 -7 26 5 10 32 -11 16 -1
15 28 -4 28 -18 49 -16 36 4 -4 7 -24 14 -44 15 -20 1 -37 5 -37 10 0 4 -8 7
-18 7 -9 0 -35 12 -57 27 -38 26 -96 36 -147 25z m227 -92 c3 -6 -1 -7 -9 -4
-18 7 -21 14 -7 14 6 0 13 -4 16 -10z"/>
<path d="M5026 4111 c-3 -5 -3 -23 0 -40 5 -25 11 -31 33 -30 27 0 75 17 54
18 -7 1 -12 4 -12 9 4 23 -4 33 -23 32 -38 -3 -50 -1 -43 10 3 6 4 10 1 10 -3
0 -7 -4 -10 -9z"/>
<path d="M3070 4085 c0 -8 5 -15 11 -15 8 0 8 -4 2 -12 -6 -7 -12 -22 -15 -34
-5 -20 -4 -21 41 -8 25 7 65 18 89 24 25 6 42 17 42 25 0 18 -21 19 -39 3 -11
-10 -13 -10 -7 0 10 18 -4 38 -15 21 -6 -10 -9 -11 -9 -1 0 8 -17 12 -50 12
-38 0 -50 -4 -50 -15z"/>
<path d="M4255 4090 c-8 -13 5 -13 25 0 13 8 13 10 -2 10 -9 0 -20 -4 -23 -10z"/>
<path d="M4982 4075 c11 -25 28 -34 28 -15 0 6 -4 10 -10 10 -5 0 -10 7 -10
15 0 8 -4 15 -10 15 -6 0 -5 -10 2 -25z"/>
<path d="M2221 4060 c57 -75 101 -119 115 -113 8 3 14 0 14 -7 0 -6 4 -8 10
-5 5 3 20 -3 32 -14 22 -21 38 -27 38 -15 0 12 -42 74 -49 74 -5 0 -26 12 -47
27 -21 14 -61 39 -88 55 l-48 29 23 -31z"/>
<path d="M3518 4058 c-13 -18 -31 -50 -41 -73 l-17 -40 5 65 c3 49 2 61 -6 47
-6 -10 -8 -21 -5 -24 5 -6 -6 -19 -39 -43 -16 -11 -15 -9 3 12 20 22 21 26 7
32 -9 3 -25 6 -36 6 -10 0 -19 4 -19 9 0 5 -18 5 -42 0 -23 -6 -48 -7 -55 -5
-9 4 -11 1 -7 -6 5 -7 -1 -9 -19 -6 -16 3 -24 1 -20 -5 4 -6 -5 -7 -23 -3 -20
5 -25 4 -14 -3 11 -8 9 -12 -14 -21 -16 -6 -34 -13 -40 -16 -6 -3 0 4 14 15
30 24 6 30 -26 6 -10 -8 -31 -15 -45 -15 -34 0 -89 -19 -89 -31 0 -5 5 -9 12
-9 6 0 8 -3 5 -6 -4 -4 -12 -2 -19 4 -10 8 -22 3 -46 -19 -37 -34 -28 -39 14
-8 l29 21 -28 -26 c-15 -14 -37 -26 -48 -26 -11 0 -37 -12 -59 -26 -29 -19
-40 -34 -41 -53 0 -21 -2 -23 -8 -8 -13 34 -33 -7 -34 -70 0 -87 45 -165 128
-219 23 -15 99 -20 233 -14 53 2 78 8 93 21 19 16 20 21 8 36 -13 17 -13 17 7
1 19 -17 22 -16 61 3 23 11 64 44 92 74 47 50 51 58 52 107 1 29 4 41 6 26 4
-28 23 -40 23 -15 1 22 48 71 71 72 20 2 19 -1 -10 -24 -17 -14 -40 -39 -51
-56 -21 -32 -27 -85 -10 -85 6 0 10 4 10 9 0 5 6 16 13 23 23 24 55 83 50 95
-2 6 5 17 17 23 11 6 18 15 15 20 -3 5 -1 11 4 14 21 13 -19 -78 -60 -136 -24
-33 -24 -41 0 -26 15 9 23 9 35 -1 11 -9 16 -10 16 -2 0 6 9 11 19 11 11 0 22
6 24 13 3 6 6 2 6 -9 1 -12 -7 -28 -16 -35 -11 -10 -14 -10 -9 -1 16 26 -21
11 -42 -18 -13 -16 -27 -30 -33 -30 -6 0 -1 8 11 18 26 21 19 48 -9 37 -9 -4
-23 -8 -31 -9 -8 -2 -20 -11 -25 -22 -6 -10 -17 -20 -25 -22 -12 -3 -13 -1 -2
9 6 7 12 27 12 43 l0 31 -18 -26 c-54 -80 -87 -133 -87 -141 0 -9 -25 -28 -38
-28 -5 0 -5 5 -1 12 4 7 3 8 -5 4 -6 -4 -9 -11 -6 -16 3 -5 1 -11 -5 -15 -5
-3 -10 -1 -10 5 0 6 -5 8 -10 5 -6 -4 -8 -10 -5 -15 6 -10 -85 -40 -121 -40
-13 0 -25 -4 -28 -9 -7 -11 32 -38 68 -47 21 -5 26 -3 26 12 1 18 1 18 14 2 7
-10 22 -18 32 -17 29 0 109 44 107 57 -2 6 3 9 10 6 16 -6 97 62 97 81 0 19
52 23 68 5 7 -8 12 -10 11 -5 -3 25 2 61 11 75 9 13 12 13 23 0 16 -21 63 -50
79 -50 10 0 10 2 0 9 -11 7 -11 9 2 14 9 4 16 13 16 21 0 7 7 26 14 42 8 15
13 31 10 36 -3 5 11 25 32 46 l37 37 -21 -38 c-25 -43 -26 -47 -12 -47 6 0 10
6 10 14 0 7 7 20 17 27 15 13 15 11 -1 -19 -15 -29 -15 -34 -2 -47 19 -19 36
-19 36 1 0 8 3 13 8 11 4 -3 8 9 9 26 1 16 11 40 22 51 19 21 19 76 0 76 -12
0 -70 -36 -65 -41 2 -2 -11 -4 -30 -5 -33 0 -39 5 -34 36 1 8 -1 12 -5 8 -3
-3 -8 -14 -9 -25 -2 -10 -8 -19 -14 -19 -7 -1 -18 -2 -24 -3 -10 -1 -10 -3 0
-10 11 -6 10 -10 -4 -15 -9 -3 -19 -4 -22 -1 -3 3 0 5 7 5 7 0 10 4 6 10 -8
13 51 63 78 66 12 2 16 0 10 -2 -28 -12 -11 -21 25 -14 62 11 82 27 82 64 0
45 -33 63 -92 49 -24 -5 -42 -14 -41 -21 2 -6 -3 -9 -11 -6 -8 3 -24 -8 -38
-28 -42 -56 -43 -61 -17 -53 18 5 16 2 -9 -14 -18 -12 -35 -28 -38 -36 -4 -8
-10 -15 -15 -15 -14 0 54 110 97 156 52 56 91 71 132 50 37 -19 74 -64 66 -80
-3 -6 8 4 25 23 17 18 32 36 32 40 6 27 5 50 -2 46 -4 -3 -10 -1 -14 5 -9 15
-18 12 -48 -15 -16 -15 -27 -20 -27 -13 0 24 -64 57 -139 72 -41 9 -92 27
-113 41 -20 14 -40 25 -42 25 -3 0 -15 -14 -28 -32z m-61 -140 c-3 -8 -6 -5
-6 6 -1 11 2 17 5 13 3 -3 4 -12 1 -19z m213 -216 c0 -4 -9 -13 -20 -20 -22
-13 -23 -12 -14 12 6 16 34 23 34 8z m-499 -59 c13 -16 12 -17 -3 -4 -17 13
-22 21 -14 21 2 0 10 -8 17 -17z m453 -20 c-3 9 -1 17 5 17 12 0 15 -23 4 -33
-8 -8 -33 12 -33 26 0 6 7 2 15 -9 13 -16 14 -16 9 -1z m-157 -55 c-3 -8 -6
-5 -6 6 -1 11 2 17 5 13 3 -3 4 -12 1 -19z"/>
<path d="M2954 4045 c-49 -29 -72 -65 -26 -41 23 13 81 66 71 66 -2 0 -23 -11
-45 -25z"/>
<path d="M3010 4036 c0 -8 6 -17 13 -19 9 -4 8 -8 -3 -16 -13 -9 -13 -11 2
-11 20 0 36 22 20 28 -7 2 -12 10 -12 18 0 8 -4 14 -10 14 -5 0 -10 -6 -10
-14z"/>
<path d="M4865 4040 c-3 -5 -1 -10 4 -10 6 0 11 5 11 10 0 6 -2 10 -4 10 -3 0
-8 -4 -11 -10z"/>
<path d="M2980 4025 c-7 -9 -11 -17 -9 -20 3 -2 10 5 17 15 14 24 10 26 -8 5z"/>
<path d="M3950 4029 c0 -5 5 -7 10 -4 6 3 10 8 10 11 0 2 -4 4 -10 4 -5 0 -10
-5 -10 -11z"/>
<path d="M4000 4016 c0 -8 5 -18 10 -21 6 -3 10 0 10 7 0 10 2 10 9 -1 6 -9
16 -11 27 -7 16 6 17 9 4 15 -36 20 -60 22 -60 7z"/>
<path d="M3885 4010 c3 -5 8 -10 11 -10 2 0 4 5 4 10 0 6 -5 10 -11 10 -5 0
-7 -4 -4 -10z"/>
<path d="M3848 3978 c9 -9 15 -9 24 0 9 9 7 12 -12 12 -19 0 -21 -3 -12 -12z"/>
<path d="M4100 3980 c-8 -5 -31 -10 -50 -11 -29 0 -31 -2 -15 -9 16 -7 13 -9
-17 -9 -45 -1 -68 -9 -68 -25 0 -6 -20 -31 -45 -56 -24 -25 -44 -51 -45 -57 0
-18 27 -16 34 2 3 8 13 15 21 15 9 0 14 4 11 9 -7 11 18 33 27 24 4 -3 7 -1 7
5 0 7 5 12 11 12 5 0 8 -4 5 -9 -5 -7 15 -21 30 -21 10 0 3 29 -8 34 -7 3 1 3
18 1 23 -4 34 0 38 11 5 14 4 15 -9 4 -19 -16 -19 -6 1 25 8 13 29 28 45 34
16 5 29 15 29 20 0 13 -1 13 -20 1z"/>
<path d="M5051 3976 c2 -9 7 -17 12 -17 4 1 28 1 55 1 56 1 40 15 -27 26 -37
6 -43 5 -40 -10z"/>
<path d="M3978 3963 c7 -3 16 -2 19 1 4 3 -2 6 -13 5 -11 0 -14 -3 -6 -6z"/>
<path d="M5178 3953 c6 -2 18 -2 25 0 6 3 1 5 -13 5 -14 0 -19 -2 -12 -5z"/>
<path d="M2430 3939 c0 -19 13 -35 28 -34 21 0 18 17 -5 33 -19 12 -23 12 -23
1z"/>
<path d="M4216 3935 c4 -8 8 -15 10 -15 2 0 4 7 4 15 0 8 -4 15 -10 15 -5 0
-7 -7 -4 -15z"/>
<path d="M2280 3932 c0 -4 18 -27 40 -52 37 -42 40 -43 39 -20 0 18 -11 33
-39 52 -22 15 -40 24 -40 20z"/>
<path d="M4112 3915 c-11 -14 -27 -25 -36 -25 -9 0 -16 -4 -16 -10 0 -5 4 -10
9 -10 5 0 17 -7 25 -16 9 -9 16 -11 16 -4 0 6 6 8 13 5 6 -4 4 0 -6 8 -27 22
-7 57 33 57 17 0 30 5 30 10 0 20 -49 10 -68 -15z"/>
<path d="M4193 3922 c1 -14 5 -18 11 -12 7 7 6 14 -1 21 -9 9 -12 7 -10 -9z"/>
<path d="M4580 3920 c-26 -22 -35 -26 -24 -9 4 7 2 10 -5 8 -7 -3 -12 -9 -11
-14 0 -6 25 -8 58 -6 91 5 127 34 48 38 -31 2 -49 -2 -66 -17z"/>
<path d="M4975 3930 c-3 -5 1 -10 9 -10 9 0 16 5 16 10 0 6 -4 10 -9 10 -6 0
-13 -4 -16 -10z"/>
<path d="M5079 3929 c-15 -9 56 -202 77 -210 11 -4 13 -8 6 -8 -16 -1 -7 -39
25 -108 23 -51 26 -53 63 -53 36 0 41 4 64 43 16 27 24 58 25 89 0 43 -2 47
-27 51 -25 4 -24 4 6 6 25 1 32 5 32 21 0 30 26 87 55 122 45 54 42 55 -146
54 -94 0 -175 -3 -180 -7z m272 -62 c-10 -9 -11 -8 -5 6 3 10 9 15 12 12 3 -3
0 -11 -7 -18z m-93 -144 c-10 -2 -28 -2 -40 0 -13 2 -5 4 17 4 22 1 32 -1 23
-4z"/>
<path d="M4125 3899 c-10 -15 1 -23 20 -15 9 3 13 10 10 16 -8 13 -22 13 -30
-1z"/>
<path d="M4217 3874 c-3 -3 -3 -13 0 -21 5 -12 7 -12 14 -1 15 23 4 40 -14 22z"/>
<path d="M4425 3860 c-8 -13 5 -13 25 0 13 8 13 10 -2 10 -9 0 -20 -4 -23 -10z"/>
<path d="M4898 3863 c-11 -3 -18 -14 -18 -29 0 -20 5 -24 28 -24 15 0 32 4 38
8 12 8 15 42 3 42 -4 0 -13 2 -21 4 -7 2 -21 2 -30 -1z"/>
<path d="M2380 3850 c0 -25 24 -53 57 -66 40 -17 47 -16 30 6 -20 26 -87 72
-87 60z"/>
<path d="M3937 3851 c-1 -3 -2 -21 -2 -38 0 -22 -4 -33 -13 -33 -12 0 -12 -3
-1 -17 9 -10 9 -14 2 -10 -7 5 -16 -1 -23 -12 -8 -16 -6 -28 9 -56 23 -43 36
-31 27 23 -5 27 -4 33 3 22 8 -12 11 -7 11 19 0 19 8 44 18 55 16 20 16 20 0
7 -11 -8 -18 -9 -18 -3 0 6 5 14 10 17 16 10 12 32 -5 32 -9 0 -17 -3 -18 -6z"/>
<path d="M4218 3823 c-10 -2 -18 -8 -18 -12 0 -11 49 -1 56 10 5 9 -8 10 -38
2z"/>
<path d="M2385 3790 c10 -11 20 -20 23 -20 3 0 -3 9 -13 20 -10 11 -20 20 -23
20 -3 0 3 -9 13 -20z"/>
<path d="M2633 3785 c-16 -11 -51 -16 -118 -18 -52 -1 -95 -3 -95 -5 0 -5 61
-81 95 -120 17 -19 35 -42 40 -51 48 -83 222 -268 275 -293 75 -35 215 -32
348 7 53 16 54 17 35 37 -10 11 -37 29 -59 38 -23 10 -45 23 -48 29 -5 7 -15
7 -34 0 -15 -5 -34 -12 -42 -15 -11 -4 -7 -11 15 -30 29 -24 29 -25 5 -18 -14
4 -41 11 -60 17 -19 5 -61 9 -93 8 -119 -4 -216 47 -252 132 -19 47 -19 139 1
206 8 29 13 60 10 68 -3 8 -2 11 3 8 5 -3 12 -1 16 5 9 15 -18 12 -42 -5z"/>
<path d="M4079 3783 c-1 -5 0 -17 1 -28 2 -17 0 -18 -17 -5 -10 8 -15 11 -11
6 4 -5 0 -15 -8 -23 -18 -18 -9 -34 14 -26 25 10 42 29 42 47 0 9 -6 16 -12
16 -9 0 -8 4 2 10 10 6 11 10 3 10 -7 0 -14 -3 -14 -7z"/>
<path d="M2720 3717 c-80 -169 -51 -282 79 -307 30 -5 63 -10 73 -10 19 0 19
1 -3 21 -20 16 -20 18 -4 11 38 -18 138 -23 170 -8 17 8 24 15 15 17 -8 1 1 5
20 9 30 6 27 8 -26 9 -95 2 -157 25 -212 79 -57 56 -88 138 -78 203 3 21 4 39
1 39 -4 0 -19 -28 -35 -63z"/>
<path d="M5090 3776 c0 -14 21 -58 26 -54 8 8 -7 58 -17 58 -5 0 -9 -2 -9 -4z"/>
<path d="M4155 3730 c3 -5 8 -10 11 -10 2 0 4 5 4 10 0 6 -5 10 -11 10 -5 0
-7 -4 -4 -10z"/>
<path d="M3830 3698 c0 -19 2 -20 10 -8 13 19 13 30 0 30 -5 0 -10 -10 -10
-22z"/>
<path d="M3990 3704 c-11 -12 -10 -13 6 -8 16 5 16 3 -3 -14 -26 -23 -30 -42
-8 -42 8 0 15 7 15 16 0 8 5 12 10 9 17 -11 23 23 7 39 -13 14 -16 14 -27 0z"/>
<path d="M3930 3640 c-13 -8 -12 -13 8 -32 l22 -22 0 32 c0 34 -5 38 -30 22z"/>
<path d="M4666 3641 c-3 -5 3 -11 15 -14 16 -4 18 -3 8 9 -13 16 -16 17 -23 5z"/>
<path d="M3811 3621 c-8 -5 -12 -18 -8 -30 3 -12 1 -19 -4 -15 -5 3 -9 -4 -9
-15 0 -15 5 -19 16 -14 12 4 14 14 10 35 -3 18 -2 27 4 23 6 -3 10 1 10 9 0
18 0 19 -19 7z"/>
<path d="M3777 3596 c-4 -9 -11 -15 -16 -12 -5 3 -14 -1 -21 -9 -7 -8 -9 -15
-5 -15 4 0 1 -7 -6 -16 -11 -14 -10 -15 11 -12 25 3 55 48 48 70 -3 7 -7 5
-11 -6z"/>
<path d="M3900 3603 c1 -17 26 -40 38 -35 10 3 9 8 -4 23 -17 19 -34 25 -34
12z"/>
<path d="M3560 3551 c0 -33 3 -39 25 -43 17 -4 25 -1 25 8 0 8 7 14 15 14 12
0 11 -6 -5 -32 -11 -18 -20 -36 -20 -40 0 -10 35 -2 36 8 0 5 4 17 9 28 12 26
-7 52 -36 48 -17 -2 -20 0 -10 6 16 12 -3 27 -21 16 -8 -5 -9 -2 -5 9 3 10 2
17 -3 17 -6 0 -10 -17 -10 -39z"/>
<path d="M3891 3564 c0 -11 3 -14 6 -6 3 7 2 16 -1 19 -3 4 -6 -2 -5 -13z"/>
<path d="M3790 3525 c-7 -8 -15 -13 -19 -11 -3 2 -15 -1 -26 -5 -18 -9 -18 -9
3 -5 14 3 22 -1 22 -10 0 -18 -10 -18 -37 1 -19 13 -22 13 -27 -1 -9 -23 -8
-26 7 -18 6 4 5 -1 -4 -12 -9 -10 -14 -26 -12 -34 3 -12 2 -12 -9 1 -12 15
-17 14 -48 -12 -26 -22 -45 -29 -77 -29 -32 0 -43 -4 -43 -16 0 -9 5 -12 11
-8 6 4 42 6 80 5 59 -1 69 1 79 19 6 11 15 18 21 15 5 -4 9 4 9 17 0 23 29 74
30 53 0 -6 -5 -16 -11 -22 -6 -6 -9 -21 -7 -34 2 -19 10 -24 38 -26 39 -3 57
8 82 52 17 32 11 57 -20 83 -20 16 -27 15 -42 -3z"/>
<path d="M4958 3523 c23 -2 59 -2 80 0 20 2 1 4 -43 4 -44 0 -61 -2 -37 -4z"/>
<path d="M5093 3523 c9 -2 23 -2 30 0 6 3 -1 5 -18 5 -16 0 -22 -2 -12 -5z"/>
<path d="M5250 3520 c-13 -8 -12 -10 3 -10 9 0 17 5 17 10 0 12 -1 12 -20 0z"/>
<path d="M3473 3495 c-15 -13 -22 -25 -15 -25 7 0 15 7 19 16 4 11 8 12 13 4
5 -8 11 -7 22 4 9 8 19 12 23 8 5 -4 5 -1 1 6 -11 19 -32 15 -63 -13z"/>
<path d="M3532 3477 c-29 -9 -33 -13 -27 -36 4 -14 12 -29 18 -33 15 -9 67 19
67 36 0 8 3 21 6 30 7 19 -13 20 -64 3z"/>
<path d="M3228 3473 c7 -3 16 -2 19 1 4 3 -2 6 -13 5 -11 0 -14 -3 -6 -6z"/>
<path d="M3460 3450 c-13 -9 -13 -11 0 -20 9 -6 10 -10 3 -10 -6 0 -14 4 -17
9 -6 9 -116 -39 -116 -51 0 -13 28 -9 42 5 8 9 21 11 33 7 22 -9 75 -2 89 11
10 8 0 59 -12 59 -4 0 -14 -5 -22 -10z"/>
<path d="M3859 3428 c-7 -12 -31 -40 -53 -61 -23 -21 -40 -43 -38 -48 1 -5 -2
-9 -7 -9 -5 0 -12 -8 -14 -17 -4 -17 -5 -17 -6 0 -1 21 -31 23 -31 2 0 -8 4
-15 8 -15 13 0 57 -40 46 -41 -5 -1 2 -5 16 -9 l25 -8 -27 -1 c-21 -1 -28 -6
-28 -20 0 -24 12 -32 61 -41 33 -6 37 -5 34 12 -2 10 2 33 10 52 20 46 1 65
-33 33 l-25 -22 14 23 c12 19 12 24 -1 32 -22 14 -4 12 35 -4 19 -8 37 -11 40
-6 3 5 13 6 22 3 13 -5 15 -2 9 18 -5 13 -13 52 -19 87 -11 66 -19 75 -38 40z
m22 -115 c13 -16 12 -17 -3 -4 -17 13 -22 21 -14 21 2 0 10 -8 17 -17z"/>
<path d="M3606 3415 c-11 -8 -15 -15 -9 -15 6 0 16 7 23 15 16 19 11 19 -14 0z"/>
<path d="M3439 3376 c-31 -7 -78 -23 -103 -34 -25 -12 -50 -22 -55 -22 -16 0
-22 -17 -13 -39 5 -15 11 -18 22 -11 13 8 12 11 -5 25 -19 14 -18 15 7 4 24
-11 33 -9 68 15 22 14 40 23 40 19 0 -5 -19 -19 -41 -32 -32 -18 -39 -25 -28
-33 12 -8 11 -9 -1 -5 -8 2 -33 -6 -56 -19 -34 -20 -65 -29 -116 -33 -5 -1 -8
-14 -8 -31 0 -30 1 -30 55 -30 53 0 59 3 105 46 27 26 47 50 44 55 -3 5 1 6 9
3 8 -3 31 9 52 27 l37 33 -22 16 c-17 13 -20 19 -10 25 9 5 11 4 6 -3 -4 -7
-1 -12 8 -12 9 0 16 -5 16 -11 0 -15 59 33 59 49 1 14 4 14 -70 -2z"/>
<path d="M3760 3370 c0 -5 4 -10 9 -10 6 0 13 5 16 10 3 6 -1 10 -9 10 -9 0
-16 -4 -16 -10z"/>
<path d="M3258 3363 c-10 -2 -18 -9 -18 -14 0 -13 12 -11 34 6 20 15 16 17
-16 8z"/>
<path d="M3712 3345 c0 -16 2 -22 5 -12 2 9 2 23 0 30 -3 6 -5 -1 -5 -18z"/>
<path d="M3546 3328 l-19 -31 76 6 c88 6 97 10 90 37 -5 17 -14 20 -67 20 -59
0 -63 -2 -80 -32z"/>
<path d="M3525 3340 c4 -6 11 -8 16 -5 14 9 11 15 -7 15 -8 0 -12 -5 -9 -10z"/>
<path d="M3487 3334 c-8 -8 1 -24 14 -24 5 0 9 7 9 15 0 15 -12 20 -23 9z"/>
<path d="M3436 3291 c-16 -17 -15 -18 6 -16 13 1 34 3 48 4 l25 1 -29 15 c-35
18 -30 19 -50 -4z"/>
<path d="M5633 3258 c-30 -14 -29 -23 1 -23 13 0 22 2 20 4 -2 2 1 10 7 18 13
15 3 16 -28 1z"/>
<path d="M3875 3216 c-4 -20 -4 -47 -1 -60 6 -24 5 -24 -29 -15 -29 8 -44 6
-75 -8 -22 -10 -40 -24 -40 -32 0 -9 6 -11 18 -6 9 4 44 10 77 13 80 6 88 14
80 76 -9 65 -22 79 -30 32z"/>
<path d="M3621 3211 c-21 -13 -4 -31 30 -31 19 0 29 5 29 15 0 8 -4 15 -9 15
-5 0 -15 2 -23 5 -7 3 -19 1 -27 -4z"/>
<path d="M3558 3182 c-10 -4 -14 -12 -10 -17 8 -12 53 -15 46 -3 -3 4 0 8 6 8
6 0 8 5 5 10 -7 11 -22 12 -47 2z"/>
<path d="M5546 3069 c-16 -16 -26 -32 -23 -35 4 -4 9 1 13 10 3 9 10 14 14 11
10 -6 33 21 28 34 -1 5 -16 -4 -32 -20z"/>
<path d="M5579 3053 c-1 -5 -1 -11 -1 -14 1 -4 -8 -15 -19 -25 -16 -14 -22
-15 -28 -5 -6 10 -10 9 -14 -4 -4 -9 -3 -13 3 -10 6 3 10 0 10 -8 0 -18 40
-30 56 -16 8 7 10 2 7 -18 -4 -26 -3 -26 12 6 16 35 21 106 6 97 -4 -3 -6 -16
-4 -30 3 -13 0 -27 -6 -30 -9 -6 -17 28 -12 57 0 4 -1 7 -4 7 -3 0 -6 -3 -6
-7z"/>
<path d="M5634 3045 c-9 -22 1 -29 15 -11 8 10 9 16 1 21 -5 3 -13 -1 -16 -10z"/>
<path d="M5475 2940 c-3 -5 -1 -10 4 -10 6 0 11 5 11 10 0 6 -2 10 -4 10 -3 0
-8 -4 -11 -10z"/>
<path d="M5446 2898 c-16 -27 -42 -107 -51 -161 l-6 -39 43 30 c24 16 57 36
75 45 37 20 76 78 71 109 -2 14 -13 24 -32 29 -42 11 -82 -15 -100 -66 -8 -22
-15 -32 -15 -22 -1 10 8 36 19 57 22 43 19 54 -4 18z m-29 -160 c-3 -8 -6 -5
-6 6 -1 11 2 17 5 13 3 -3 4 -12 1 -19z"/>
<path d="M3285 2561 c-8 -27 -4 -33 14 -22 10 6 11 14 3 26 -9 17 -10 16 -17
-4z"/>
<path d="M5030 2174 c-123 -18 -172 -37 -227 -87 -52 -47 -57 -62 -63 -182 -4
-60 -17 -165 -30 -232 -13 -68 -21 -125 -18 -128 17 -17 362 118 516 201 76
42 82 47 69 62 -51 59 -108 206 -121 315 l-7 57 -47 -1 c-26 -1 -58 -3 -72 -5z"/>
<path d="M3225 2085 c-20 -16 -25 -24 -14 -25 21 0 53 24 48 38 -3 7 -15 3
-34 -13z"/>
<path d="M3285 2089 c-11 -17 -2 -18 25 -4 24 14 24 14 3 15 -12 0 -25 -5 -28
-11z"/>
<path d="M3441 1894 c0 -11 3 -14 6 -6 3 7 2 16 -1 19 -3 4 -6 -2 -5 -13z"/>
<path d="M3109 1793 l-24 -28 28 24 c25 23 32 31 24 31 -2 0 -14 -12 -28 -27z"/>
<path d="M3079 1743 c-13 -3 -56 -73 -46 -73 2 0 18 18 36 40 17 22 31 39 29
39 -2 -1 -10 -3 -19 -6z"/>
<path d="M3463 1668 c-20 -26 -26 -41 -15 -34 12 7 36 46 29 46 -3 0 -9 -6
-14 -12z"/>
<path d="M3487 1656 c-16 -25 -16 -27 3 -46 11 -11 30 -21 43 -21 16 -1 18 -2
5 -6 -15 -4 -16 -8 -7 -24 8 -16 13 -18 25 -8 23 19 16 38 -18 47 l-33 9 26
11 c14 5 37 8 51 5 20 -4 28 0 33 17 9 29 4 33 -58 38 -49 4 -55 2 -70 -22z"/>
<path d="M3375 1660 c-18 -8 -17 -9 8 -9 15 -1 27 4 27 9 0 12 -8 12 -35 0z"/>
<path d="M3312 1630 c0 -14 2 -19 5 -12 2 6 2 18 0 25 -3 6 -5 1 -5 -13z"/>
<path d="M3280 1623 c0 -15 -2 -16 -10 -3 -6 10 -10 11 -10 3 0 -7 -7 -13 -15
-13 -8 0 -15 -6 -15 -14 0 -8 8 -13 18 -11 9 2 24 4 32 4 17 1 26 51 10 51 -6
0 -10 -8 -10 -17z"/>
<path d="M3588 1562 c-9 -9 -28 -28 -43 -41 l-27 -25 23 -8 c12 -5 30 -8 38
-7 9 1 27 -1 41 -5 40 -11 160 -23 160 -16 0 3 -19 17 -42 30 -24 13 -64 39
-89 57 -42 30 -46 31 -61 15z m-13 -70 c-3 -3 -11 0 -18 7 -9 10 -8 11 6 5 10
-3 15 -9 12 -12z"/>
<path d="M3454 1550 c0 -14 7 -20 23 -20 28 0 30 16 4 30 -26 13 -27 13 -27
-10z"/>
<path d="M3460 1511 c0 -16 44 -21 60 -6 13 13 10 15 -23 15 -20 0 -37 -4 -37
-9z"/>
</g>
</svg>
